<svg width="198" height="216" viewBox="0 0 198 216" fill="none" xmlns="http://www.w3.org/2000/svg">
<path fill-rule="evenodd" clip-rule="evenodd" d="M182.833 119.585C176.703 135.376 163.648 152.796 163.025 169.246C162.886 173.124 166.176 183.548 163.613 185.28C157.068 182.336 156.895 176.588 155.718 176.207C153.779 175.064 151.078 180.328 146.749 179.046C143.113 175.618 143.875 169.696 142.178 168.588C141.139 168.103 136.049 171.116 129.019 166.752C128.742 165.055 137.053 163.393 139.408 162.042C151.147 155.359 164.548 127.723 169.604 114.632C170.331 110.407 183.352 115.533 182.833 119.55V119.585Z" fill="#63666B"/>
<path fill-rule="evenodd" clip-rule="evenodd" d="M155.718 193.626C151.389 198.613 140.377 205.989 133.971 202.076C125.902 197.124 124.24 174.025 134.456 170.596C137.711 170.146 140.654 169.626 141.762 172.674C143.494 177.453 144.81 182.163 150.316 179.739C153.155 178.492 153.606 178.908 155.683 180.778C160.289 184.968 160.081 188.604 155.683 193.626H155.718Z" fill="#63666B"/>
<path d="M143.702 117.056C138.68 115.428 134.629 116.017 131.547 116.987C129.85 117.541 128.465 118.199 127.357 118.684C126.179 119.203 125.383 119.55 124.898 119.342C124.76 119.342 124.656 119.273 124.517 119.203C123.063 118.545 122.82 116.086 122.162 113.42C121.539 110.926 120.535 108.26 117.834 106.771C117.695 106.701 117.557 106.632 117.384 106.528C112.674 106.632 108.865 109.437 105.887 111.584C103.878 113.004 102.251 114.147 100.969 113.939C99.9652 113.662 98.6147 110.545 95.1518 107.498C92.6238 105.316 89.0224 103.169 83.6549 102.199C81.5079 103.896 89.5072 114.632 90.8577 118.649C97.5411 138.874 84.1051 185.349 76.2443 206.024C76.1057 206.266 76.0019 206.508 75.9326 206.751V208.101C77.1446 212.707 89.8881 217.486 95.1864 215.512C95.9482 215.235 96.5369 214.82 96.9524 214.231C100.485 204.915 103.151 194.318 105.921 183.652C109.177 171.289 112.605 158.821 117.834 148.155C119.15 145.488 120.569 142.926 122.162 140.501C122.924 139.359 123.721 138.216 124.517 137.108C125.037 136.45 125.556 135.792 126.075 135.134C126.422 134.718 126.872 134.268 127.357 133.783C128.5 132.709 129.954 131.532 131.547 130.251C136.707 126.129 143.217 121.281 143.736 117.922V116.952L143.702 117.056ZM80.192 205.885C87.2909 187.219 92.139 165.505 94.8747 147.428L95.1171 145.731C96.3984 137.177 97.7489 128.103 95.1171 120.692C94.944 120.173 94.7362 119.653 94.4938 119.169C91.5157 112.519 87.0832 108.398 87.7758 107.429C90.6153 108.502 92.9355 111.1 95.1171 113.558C96.8832 115.567 98.58 117.472 100.415 118.407C102.147 119.307 103.809 118.649 105.852 117.125L106.268 116.814C113.748 111.065 108.761 121.87 105.852 127.723C104.986 129.489 104.294 130.805 104.155 131.116C100.138 141.714 97.5065 153.696 95.1171 165.748C92.0005 181.262 89.2648 196.916 84.2782 210.006C81.9581 209.833 79.6379 206.959 80.192 205.885ZM117.765 131.774C114.128 140.813 109.592 150.164 105.852 159.098C105.229 160.622 104.605 162.111 104.017 163.6C101.143 170.873 97.8182 182.336 95.1171 189.989C93.5934 194.284 92.2775 197.4 91.3425 197.885C93.1086 193.245 94.1821 188.535 95.1171 183.79C96.5369 176.726 97.7835 169.592 100.866 162.319C102.285 158.96 103.982 155.081 105.852 151.064C109.384 143.48 113.574 135.515 117.765 130.112C118.18 129.593 118.596 129.073 118.977 128.588C118.596 129.627 118.18 130.701 117.765 131.74V131.774ZM117.765 122.666C117.453 123.255 117.072 123.809 116.656 124.363C115.237 126.164 109.765 135.999 105.852 143.999C103.393 148.986 101.524 153.246 101.593 154.389C100.969 148.224 103.047 141.194 105.852 134.268C109.038 126.407 113.228 118.684 115.617 112.416C116.449 111.55 117.176 111.377 117.799 111.654C119.704 112.554 120.292 118.06 117.799 122.632L117.765 122.666Z" fill="#63666B"/>
<path d="M95.1518 104.866C98.026 108.26 100.796 110.892 104.744 108.779L105.887 108.156C110.285 105.801 114.44 103.55 117.799 104.762C119.461 105.351 120.916 106.771 122.128 109.403L122.197 109.541C123.028 111.411 123.686 112.485 124.483 113.108C125.21 113.697 126.076 113.87 127.322 113.939C127.946 113.939 128.707 113.939 129.573 113.939C130.231 113.939 130.889 113.939 131.512 113.87C139.893 113.281 143.009 108.71 143.182 98.9093C143.321 90.113 139.719 74.2173 131.512 68.2608C130.231 67.3257 128.846 66.6331 127.322 66.2522C127.08 66.1829 126.837 66.1483 126.63 66.079C125.937 65.9405 125.21 65.8712 124.483 65.8712C123.721 65.8712 122.924 65.9059 122.128 66.0444C120.743 66.2522 119.288 66.6331 117.799 67.1526C113.817 68.5724 109.661 71.1005 105.887 74.2866C101.489 77.9921 97.6105 82.5981 95.1518 87.3079C92.243 92.9182 91.3426 98.7361 94.009 103.446C94.39 103.896 94.7709 104.346 95.1518 104.797V104.866ZM132.62 77.8882C137.122 81.7669 137.746 89.2472 136.949 94.9268C136.637 97.247 134.11 97.8358 131.512 97.0739C129.989 96.6237 128.465 95.654 127.322 94.2687C125.452 91.9485 124.794 88.4853 127.322 84.0872C128.257 82.4942 129.608 80.7626 131.512 78.9271C131.859 78.5808 132.24 78.2345 132.62 77.8882ZM126.353 69.8884C126.733 69.9577 127.045 70.0616 127.357 70.1654C130.127 71.1351 129.192 73.4208 127.357 76.4683C126.491 77.8882 125.452 79.4466 124.517 81.1436C123.548 82.8751 122.647 84.7452 122.162 86.6845C121.643 88.6931 121.539 90.8056 122.162 92.9181C122.578 94.338 123.34 95.7233 124.517 97.1431C125.279 98.0436 126.214 98.944 127.357 99.8444C127.599 100.052 127.842 100.225 128.119 100.433C127.945 101.091 127.703 101.714 127.357 102.199C126.699 103.1 125.695 103.446 124.517 102.615C124.102 102.338 123.686 101.922 123.236 101.333C122.82 100.814 122.474 100.225 122.162 99.6366C119.115 93.9224 119.842 84.9876 122.162 78.0267C122.82 76.0181 123.652 74.1827 124.517 72.5897C125.106 71.5507 125.729 70.6503 126.387 69.8884H126.353ZM102.078 85.23C102.909 83.9487 104.225 82.2171 105.887 80.4163C109.142 76.8146 113.644 72.7628 117.799 70.5464C119.288 69.7499 120.777 69.1958 122.128 68.9534C122.82 68.8495 123.513 68.8148 124.136 68.8841C123.444 70.0616 122.786 71.3083 122.128 72.5897C120.292 76.1913 118.665 80.1739 117.799 84.0526L117.695 84.5374C116.83 88.5892 111.22 96.0696 105.887 97.2124C104.571 97.4895 103.255 97.3856 102.043 96.7276C97.7143 94.3727 99.7921 88.8663 102.112 85.1954L102.078 85.23Z" fill="#63666B"/>
<path d="M36.6632 124.675C37.0441 124.536 37.5289 124.571 38.0483 124.675C41.1996 125.367 46.4632 129.765 52.5579 128.9C52.7311 128.761 52.9042 128.657 53.0427 128.519C57.6138 124.675 54.4971 117.367 57.406 116.259C58.8604 115.255 65.5092 120.242 74.7205 115.532C75.0668 111.099 60.3494 105.42 56.1247 101.783C55.0858 100.883 54.0469 99.9133 53.0773 98.909C47.1211 92.8485 42.3423 85.1258 38.0483 76.7451C33.131 67.1522 28.9062 56.7629 24.4045 47.17C22.3614 42.8411 20.2836 38.6854 18.0327 34.8413C14.0158 30.651 -3.47192 40.7286 0.614314 45.3346C7.71327 57.5594 19.1755 80.7623 24.4045 100.19C26.6554 108.536 27.7288 116.155 26.8285 121.939C26.5861 123.532 25.478 126.337 24.4045 129.177C22.9154 133.159 21.5303 137.142 22.8116 137.834C23.3656 137.627 23.9197 137.419 24.4045 137.211C34.1352 133.021 35.278 125.333 36.6978 124.675H36.6632ZM38.0483 98.8744C42.5847 105.039 47.9176 111.723 49.3028 113.004C51.5883 115.082 52.7657 117.956 53.0773 120.311C53.1812 121.108 53.1812 121.869 53.0773 122.527C52.8003 124.294 51.7615 125.125 50.1339 123.913C47.0519 118.614 42.0999 112.242 38.0483 105.662C34.4815 99.844 31.5727 93.8182 31.2264 88.1733C31.3649 89.3854 34.4469 93.9567 38.0483 98.909V98.8744ZM25.7897 132.57C25.0278 131.843 28.4214 127.445 30.0836 121.004C32.1614 113.073 28.9063 103.896 26.2052 95.4805C25.6165 93.7143 25.0278 91.9135 24.4045 90.078C19.3486 75.429 12.3882 58.9446 4.25038 44.9536C3.59242 44.0879 5.25462 41.1442 7.33236 40.6247C14.0504 52.1915 19.037 66.6328 24.4045 80.7623C28.179 90.6322 32.1268 100.364 37.0441 108.779C37.148 108.952 37.5289 109.472 38.0829 110.199C41.1649 114.424 49.4759 125.852 41.0957 121.35C39.9529 120.761 38.9833 120.346 38.0829 120.207C37.1479 120.069 36.3515 120.207 35.555 120.796C32.196 123.255 30.1875 130.042 25.7897 132.57Z" fill="#63666B"/>
<path d="M76.9714 131.877C75.2399 122.423 71.3268 118.925 62.4618 120.345C58.4448 121.003 57.5791 121.107 56.4363 125.436C55.7091 128.172 54.5317 129.73 53.0427 130.492C49.9607 132.085 45.4589 130.319 40.7839 128.761C39.7451 128.414 38.8448 128.345 38.0137 128.518C35.3819 129.072 33.7543 131.981 31.9189 135.098C29.8412 140.847 32.8193 147.219 38.0137 152.622C42.1345 156.881 47.6059 160.483 53.0427 162.63C58.1331 164.639 63.1543 165.297 66.9289 163.946C77.1099 160.275 78.6682 141.228 76.9367 131.877H76.9714ZM53.0427 158.855C48.4024 156.258 43.9352 152.622 41.9267 150.371C39.2949 147.427 36.5939 142.752 40.1606 140.016C43.7274 137.245 49.4412 140.57 53.0427 144.275C54.4971 145.799 55.6052 147.358 56.09 148.639C57.9254 153.383 61.1805 158.093 64.2625 161.799C61.3882 162.665 57.1289 161.175 53.0427 158.855Z" fill="#63666B"/>
<path d="M113.505 44.712C117.938 43.9501 121.955 43.3267 122.093 38.9286C122.232 35.1191 122.197 31.3789 123.513 28.9548C124.586 26.9462 126.56 25.8033 130.231 26.1497C132.205 26.3574 133.348 26.2882 134.179 25.838C135.148 25.3185 135.737 24.2796 136.741 22.5134C140.377 16.1412 139.512 11.8123 134.179 7.76049C133.348 7.1025 132.378 6.47915 131.304 5.82116C129.261 4.60907 126.526 3.36234 123.513 2.32341C119.634 1.00742 115.271 0.0723869 111.185 0.0031246C106.475 -0.0661377 102.181 1.00743 99.5496 4.0896C97.3333 6.68694 96.2599 10.7734 96.1213 15.3794V17.1802C96.3984 28.6084 102.216 42.2878 111.185 44.4003C111.947 44.5734 112.709 44.6773 113.505 44.6773V44.712ZM103.29 30.7902C100.762 26.0111 96.8485 12.0201 100.554 7.20641C102.805 11.1544 105.921 15.5871 109.523 18.8078C110.077 19.2927 110.631 19.9853 111.185 20.8165C113.99 25.1107 116.206 33.1451 111.912 35.8117C111.67 35.9502 111.427 36.0888 111.185 36.1927C107.861 37.5433 104.917 33.907 103.29 30.8248V30.7902Z" fill="#63666B"/>
<path d="M197.862 90.2859C183.213 72.4162 158.939 55.4122 151.147 34.3565C149.312 29.4042 149.173 14.4782 145.122 13.3008C143.909 14.409 142.975 15.5518 142.213 16.66C138.507 22.2356 139.858 27.6034 138.715 28.3999C137.815 29.4042 136.187 28.8848 134.213 28.2614C131.72 27.4996 128.707 26.5991 125.902 28.5385C122.647 34.495 126.11 41.8715 124.413 44.0532C124.24 44.1918 123.963 44.2957 123.548 44.3996C121.47 44.7805 116.449 44.6766 111.22 48.9362C110.181 49.7674 109.142 50.7717 108.103 52.0184C108.207 52.7457 109.454 53.1266 111.22 53.2997C114.96 53.6807 121.054 53.1958 123.548 53.7153C126.803 54.3733 130.404 55.8971 134.179 58.0442C136.776 59.4987 139.477 61.2303 142.178 63.2043C157.623 74.2516 174.314 92.0174 182.763 102.337C185.187 106.909 196.927 97.9393 198 92.3637V90.8746C197.965 90.7014 197.896 90.5282 197.827 90.3551L197.862 90.2859ZM134.213 31.2051C136.049 32.3133 137.919 34.1833 138.958 36.6768C139.304 37.5079 140.55 39.7589 142.247 42.5641C146.472 49.5942 153.329 60.1221 154.991 60.9533C150.281 58.8408 146.091 54.5811 142.247 49.6981C139.373 46.0965 136.741 42.1831 134.248 38.6161C132.62 36.2958 131.062 34.1487 129.573 32.3133C128.777 29.6467 131.443 29.5081 134.248 31.1704L134.213 31.2051ZM184.356 99.186C173.413 85.8184 159.216 72.7971 146.818 62.9619C145.295 61.7498 143.771 60.5377 142.213 59.3256C139.615 57.317 136.949 55.4469 134.213 53.9577C131.408 52.434 128.5 51.3604 125.487 51.0487C124.829 50.9795 124.171 50.9448 123.548 50.9102C118.215 50.7024 114.163 51.8452 113.782 51.0141C116.31 48.9362 120.258 48.486 123.548 47.7241C125.037 47.3778 126.422 46.9623 127.461 46.2696C128.95 45.3 129.123 43.603 128.811 41.1788C127.98 35.0145 131.235 38.443 134.248 42.4948C136.36 45.3692 138.334 48.5553 138.646 48.9362C139.789 50.3561 141.001 51.7414 142.247 53.092C156.48 68.676 176.703 82.5284 189.239 97.8354C188.096 99.5323 184.945 100.017 184.391 99.1514L184.356 99.186Z" fill="#63666B"/>
<path fill-rule="evenodd" clip-rule="evenodd" d="M102.251 64.0358C90.9962 51.3608 72.6774 39.6208 66.3403 24.4523C64.8512 20.8853 64.2972 9.94191 61.2845 9.21466C56.194 14.2708 58.0293 19.7079 57.0597 20.4698C55.6399 22.2013 51.2767 18.2534 47.6752 20.9546C45.4936 25.422 48.2293 30.7206 47.0519 32.3482C46.2555 33.1794 40.4031 32.1405 35.3473 38.6511C35.659 40.3481 44.0738 38.9974 46.7056 39.4476C60.0378 41.6294 82.235 62.8237 91.5503 73.2823C93.6973 76.9878 104.121 67.6374 102.251 64.0704V64.0358Z" fill="#63666B"/>
<path fill-rule="evenodd" clip-rule="evenodd" d="M50.965 4.159C45.1819 1.00757 32.2653 -2.07459 27.6596 3.84733C21.8419 11.293 28.3522 33.5262 39.0872 33.1799C42.3077 32.4873 45.2165 31.8986 45.2165 28.7125C45.1819 23.6217 44.7664 18.7734 50.7918 19.1197C53.8738 19.2928 54.1509 18.7387 55.4668 16.2453C58.3063 10.7043 56.8519 7.37971 50.9996 4.19364L50.965 4.159Z" fill="#63666B"/>
</svg>
