<svg width="1382" height="48" viewBox="0 0 1382 48" fill="none" xmlns="http://www.w3.org/2000/svg">
<path d="M1 24L567 24" stroke="#BABABA" stroke-linecap="round"/>
<g clip-path="url(#clip0_106_6875)">
<path d="M635.628 23.4103C634.368 23.3253 633.834 22.3531 632.94 21.7273C629.922 19.6007 627.57 19.0964 624.39 20.1232C624.072 20.2265 623.742 20.3481 623.4 20.4817C622.848 20.7005 618.12 22.341 619.542 21.5572C620.25 21.1622 621.114 20.9678 621.984 20.5789C622.926 20.1597 623.706 19.7526 624.384 19.3212C626.304 18.1182 627.396 16.7754 628.86 14.7339C629.076 14.2296 629.286 13.6645 629.496 13.0326C629.922 11.7567 630.12 10.2255 630.6 9.35059C630.828 8.93135 632.142 6.56173 631.392 6.30654C630.102 7.0235 628.542 7.91666 626.652 8.69439C625.932 8.99211 625.152 9.25945 624.384 9.56932C623.376 9.97641 622.392 10.4503 621.594 11.1551C620.964 11.7141 620.562 12.4858 620.208 13.2453C619.488 14.8007 619.032 16.18 618.354 18.1121C618.108 18.8108 617.832 19.5764 617.508 20.4513C617.592 19.0964 617.982 17.8265 618.354 16.5567C618.672 15.4691 618.984 14.3754 619.092 13.227C619.194 11.1491 619.014 9.08325 618.354 7.64932V7.63717C617.7 5.77189 618 3.94911 617.424 3.14097L616.5 1.51873L615.9 0.911133C616.302 3.78506 617.964 9.93388 618.18 12.0605C618.45 14.7582 617.16 17.4924 616.584 19.5157C616.584 16.3197 616.848 13.622 616.848 10.4443C616.848 7.92881 616.5 3.34151 615.9 0.911133C615 2.73392 614.988 6.78654 614.88 8.65185C614.79 10.2438 614.784 11.8357 614.88 13.4032C615.042 15.9551 615.474 18.4645 616.266 20.8645C615.702 20.8463 615.246 20.1597 614.88 19.1511C614.238 17.3891 613.884 14.667 613.734 12.9232C613.692 12.4068 613.662 11.9754 613.656 11.6838C613.638 11.1855 613.668 10.5354 613.734 9.78806C613.908 7.79514 615.402 3.00734 615.9 0.911133C615.6 1.21493 615 1.51873 613.734 4.65996C613.632 5.10958 613.53 5.54097 613.422 5.95413C613.254 6.60426 613.068 7.18755 612.864 7.63717C611.856 9.84882 612.93 11.7263 613.422 13.8225C613.518 14.2174 613.59 14.6245 613.62 15.0438C613.644 15.3658 613.686 15.6878 613.734 16.0038C613.962 17.5288 614.412 19.0235 614.778 20.1597C614.358 20.105 613.992 19.0478 613.734 18.0635C613.62 17.62 613.524 17.1886 613.458 16.8665C613.446 16.7997 613.434 16.7268 613.422 16.6478C613.308 15.9308 613.248 14.9101 613.008 14.26C611.94 11.3374 610.29 9.8792 607.446 8.69439C607.344 8.65185 607.236 8.60932 607.128 8.56679C606.534 8.32983 604.068 7.8316 603.24 6.83514C602.58 6.0392 601.374 4.72679 600.612 5.19464C599.652 5.79008 600.756 7.63717 601.086 8.40882C602.136 10.8939 602.154 13.944 604.296 15.7789C605.244 16.5931 606.33 17.0367 607.446 17.4984C608.412 17.8994 609.396 18.3187 610.332 19.0053C610.92 19.4367 611.682 19.9531 612.072 20.5182C612.234 20.7551 612.6 20.9374 612.654 21.6908C612.642 21.6605 610.986 19.6675 607.488 18.6589L607.452 18.6468C607.044 18.5313 606.6 18.4281 606.144 18.343C600.306 18.1364 597.756 20.3784 594.066 21.2838C592.938 21.5572 591.144 21.7091 590.994 23.0579V23.4346C591 23.5015 591.012 23.5683 591.024 23.6412C593.388 23.0336 595.92 25.1663 597.936 26.0838C599.82 26.9405 601.446 27.1835 602.94 27.1045C604.26 26.9587 605.55 26.5577 606.666 26.2417C606.93 26.1688 607.188 26.0838 607.452 25.9865C609.42 25.2574 611.334 23.9936 613.38 23.9936C611.622 24.8017 609.822 25.4944 607.776 26.5881L607.452 26.7643C605.676 27.7182 603.834 28.7693 602.748 30.5253C601.638 32.3177 601.266 33.545 600.312 35.4225C599.658 36.7106 598.608 37.7617 598.608 38.5212C598.608 39.3901 599.076 40.1496 599.952 40.3319C602.346 39.9005 603.318 38.2174 605.622 37.221C606.18 36.9779 606.81 36.6134 607.452 36.1698C608.568 35.3982 609.726 34.3713 610.686 33.2898C611.484 32.0503 612.246 30.7622 612.876 29.4863C612.99 29.2493 613.194 28.7936 613.422 28.2954C613.524 28.0706 613.632 27.8336 613.734 27.6027C614.214 26.5455 614.658 25.6038 614.478 26.3025C614.28 27.0802 614.016 27.864 613.734 28.6478C613.632 28.9212 613.53 29.2007 613.422 29.4802C613.002 30.58 612.552 31.6858 612.168 32.8159C611.43 34.9729 611.586 37.142 611.64 39.3232C611.724 39.9126 611.838 40.502 611.97 41.0853C612.234 42.8412 612.936 43.6797 613.092 45.7455C613.128 46.183 613.212 46.742 613.416 47.1977C613.5 47.38 613.602 47.5501 613.728 47.6838C613.848 47.8114 613.998 47.9146 614.166 47.9693C614.406 48.0483 614.646 48.0362 614.874 47.9693C615.6 47.7384 616.182 46.8635 616.32 46.2984C616.794 44.2934 617.67 40.186 617.856 38.9344C618.228 36.4554 618.366 35.064 618.018 32.585C617.766 30.7562 617.28 27.7668 616.908 26.0534C616.992 26.0108 617.184 26.0473 617.568 27.1592C617.784 27.785 618.072 28.6417 618.348 29.4863C618.702 30.5617 619.032 31.6068 619.194 32.1172C620.082 34.9303 621.846 37.3607 624.372 38.6974C624.996 39.0255 625.662 39.2929 626.37 39.4751C627.378 39.7425 628.59 40.1617 629.634 40.6903C629.892 40.824 632.184 42.106 632.184 41.14C631.932 40.0341 631.5 39.1045 630.888 38.3086C629.772 36.8443 629.274 34.9972 628.686 33.387C627.396 29.8569 626.544 29.4012 624.366 28.0341C623.976 27.7911 623.55 27.5177 623.07 27.1957C621.738 26.2964 619.824 25.3668 618.816 24.425C619.512 24.1638 622.878 26.0291 623.736 26.5151C623.952 26.6367 624.162 26.746 624.372 26.8554C628.38 28.8969 631.62 28.3744 635.688 26.3268C636.81 25.7617 638.652 26.2539 638.772 24.6863C638.562 23.9815 636.372 23.4954 635.61 23.4468L635.628 23.4103ZM607.794 13.3972C607.74 13.3364 607.614 13.2392 607.458 13.1238C606.744 12.5891 605.286 11.5865 605.808 11.38C606.408 11.143 606.984 11.4893 607.458 11.9268C607.734 12.182 607.98 12.4615 608.172 12.6741C608.904 13.4822 609.672 14.582 610.344 16.4777C609.54 15.1774 608.976 14.6549 607.794 13.3972ZM611.796 19.2301C612.708 17.4194 610.626 14.0534 609.45 12.5891C609.078 12.1212 608.292 11.5015 607.452 11.0944C606.048 10.4139 604.494 10.347 604.494 12.6377C602.604 10.8392 601.866 7.02958 601.296 5.99666C602.286 6.5678 602.742 7.55818 603.576 8.27514C604.242 8.85236 605.19 9.25337 606.576 9.50856C606.882 9.56325 607.176 9.64223 607.452 9.73337C610.668 10.7724 612.06 13.944 612.648 16.423C612.966 17.7719 613.116 19.0174 613.428 20.1901C613.482 20.3967 613.542 20.5972 613.608 20.7977L613.428 20.6458L611.796 19.2362V19.2301ZM602.292 23.4954C602.148 23.465 600.48 23.0519 601.488 22.7116C601.926 22.4443 603.408 22.4686 603.93 22.4686C604.506 22.4686 606.552 22.6265 607.452 22.8757C607.674 22.9364 607.824 23.0032 607.866 23.0762C607.908 23.1491 607.746 23.2159 607.452 23.2767C606.276 23.5136 602.976 23.6412 602.292 23.5015V23.4954ZM609.324 24.0969C608.76 24.2731 608.1 24.3582 607.452 24.4372C607.308 24.4554 607.17 24.4736 607.032 24.4858C607.17 24.4554 607.314 24.4189 607.452 24.3825C608.382 24.1577 609.3 23.8843 609.27 23.2827C609.234 22.5962 608.376 22.2377 607.452 22.0432C606.666 21.8792 605.844 21.8306 605.448 21.7941C603.648 21.6483 601.134 21.7941 600.054 22.4868C598.554 23.465 600.162 24.2974 601.128 24.6438C600.216 24.7167 598.998 24.0908 598.086 23.7506C596.982 23.3374 595.944 23.1673 594.78 22.9364C593.85 22.7481 592.824 22.9364 591.828 22.7238C595.98 21.4053 599.826 20.3663 604.374 20.5486C605.112 20.5789 606.234 20.8038 607.446 21.1015C609.762 21.6665 612.42 22.5111 613.422 22.8149C613.53 22.8513 613.62 22.8757 613.686 22.8939C613.608 22.9364 613.518 22.985 613.422 23.0276C612.27 23.5319 609.924 23.8964 609.324 24.0908V24.0969ZM608.172 30.1546C607.986 30.343 607.734 30.6468 607.446 30.9931C606.372 32.3055 604.86 34.2559 604.86 33.2594C604.86 32.4817 606.264 31.224 606.864 30.6103C607.05 30.422 607.242 30.2397 607.446 30.0635C608.298 29.3162 609.288 28.7086 610.254 28.4777C609.312 29.0306 608.652 29.6564 608.166 30.1546H608.172ZM613.734 24.9901C613.65 25.2149 613.542 25.4519 613.422 25.6949C612.852 26.8493 611.916 28.1982 610.77 29.5896C611.424 28.587 612.732 26.8615 612.204 26.4422C611.856 26.1627 609.462 27.305 607.878 28.6357C607.734 28.7572 607.59 28.8787 607.452 29.0063C605.904 30.4038 604.5 32.2205 603.894 33.065C602.592 34.8757 603.9 35.6595 605.514 34.5111C605.706 34.3713 606.258 34.1526 606.804 33.703C604.41 36.0362 601.092 36.7592 600.408 38.5091C600.594 36.6559 602.004 34.7116 603.054 33.0832C603.582 32.263 604.146 31.4792 604.764 30.744C605.508 29.8569 606.444 29.0245 607.464 28.265C609.366 26.8432 611.568 25.6584 613.44 24.7592L613.752 24.6134L613.902 24.5405C613.86 24.6863 613.812 24.8321 613.752 24.9901H613.734ZM616.176 33.4356C616.176 37.1602 615.54 42.586 614.88 45.6301C614.802 46.0007 614.718 46.3349 614.64 46.6326C614.184 45.7151 613.896 44.3967 613.734 42.8595C613.512 40.7389 613.542 38.1992 613.734 35.6959C613.95 32.8645 614.376 30.0817 614.88 28.0098C615.126 26.9951 615.396 26.1506 615.666 25.5551C616.212 27.8579 616.182 31.8924 616.182 33.4356H616.176ZM617.484 24.0665C616.98 24.0119 616.914 24.1334 616.848 24.6863C616.788 25.1784 617.112 25.7496 616.848 25.4215C616.674 25.2027 616.452 24.8989 616.266 24.747C615.804 24.3703 615.252 24.5101 614.88 24.9779C614.856 25.0083 614.832 25.0448 614.808 25.0751C614.412 25.6584 614.376 25.3486 614.598 24.9962C615.072 24.2367 614.61 23.7445 613.926 23.7445C613.848 23.7445 613.788 23.7445 613.74 23.7445C613.476 23.7263 613.56 23.6716 613.74 23.5744C613.932 23.4711 614.238 23.3192 614.334 23.1308C614.586 22.6205 614.118 22.341 613.74 22.1283L613.692 22.104C613.584 22.0432 613.494 21.9886 613.428 21.9521C613.164 21.7941 613.212 21.7941 613.428 21.8063C613.5 21.8063 613.59 21.8124 613.692 21.8124H613.74C614.322 21.8124 614.622 21.6969 614.886 21.2655C614.934 21.1865 614.982 21.0954 615.03 20.9921C615.234 21.0529 615.534 21.6665 616.014 21.6665C616.416 21.6665 616.908 21.381 617.118 21.1683C617.19 21.0954 617.478 20.5 617.352 20.9313C617.256 21.2655 617.148 21.6787 617.322 21.9582C617.556 22.3349 617.934 22.3045 618.366 22.2863C618.444 22.2863 618.516 22.2802 618.594 22.2802C618.624 22.2802 618.516 22.3713 618.366 22.505C618.132 22.7116 617.796 23.0093 617.754 23.1916C617.676 23.5379 618.096 23.8903 618.366 24.182C618.396 24.2184 618.426 24.2488 618.45 24.2792C618.486 24.3278 618.45 24.3339 618.366 24.3157C618.15 24.2792 617.652 24.0908 617.496 24.0726L617.484 24.0665ZM623.652 28.8422C623.904 29.0124 624.144 29.1825 624.384 29.3648C626.304 30.8412 627.798 32.8402 628.704 35.6716C629.232 37.3182 631.062 38.983 631.344 40.5324C630.162 38.9891 629.904 39.1227 628.356 37.5126C626.904 35.9997 625.44 34.3106 624.9 33.6787C624.726 33.4782 624.558 33.2777 624.384 33.0772C622.254 30.6043 620.178 28.3683 618.36 25.5977C618.198 25.3486 618.036 25.0934 617.874 24.8321C617.928 24.82 618.102 24.9111 618.36 25.0691C619.662 25.8772 623.094 28.4594 623.658 28.8422H623.652ZM618.354 20.8584C618.258 20.8402 618.18 20.7977 618.126 20.743C618.204 20.6276 618.282 20.5121 618.354 20.3967C620.598 16.9455 620.322 14.9587 623.772 11.7202C623.916 11.5865 624.126 11.4346 624.384 11.2767C626.118 10.1891 630.036 8.57894 630.642 7.66147C630.162 9.19261 628.296 11.0336 627.546 12.6741C628.098 10.42 626.082 11.5622 624.384 12.8686C623.964 13.1906 623.562 13.5248 623.22 13.8164C621.294 15.4873 620.394 17.6078 620.934 18.1911C621.402 18.7015 622.806 18.2701 624.384 17.0488C625.128 16.4716 625.908 15.7182 626.646 14.8068C626.394 15.9187 625.65 16.7329 624.384 17.7232C624.174 17.8873 623.952 18.0513 623.718 18.2276C621.708 19.7162 619.242 21.0468 618.36 20.8584H618.354ZM624.576 14.2964C624.522 14.424 624.456 14.5334 624.378 14.6306C624.252 14.7886 624.096 14.9344 623.922 15.0924C623.724 15.2746 622.686 15.943 623.064 15.1167C623.28 14.6488 623.7 14.1263 624.084 13.9562C624.18 13.9136 624.288 13.9015 624.372 13.9075C624.552 13.9258 624.666 14.0594 624.57 14.2903L624.576 14.2964ZM627.006 23.6169C626.724 23.8782 625.068 23.8721 624.378 23.5926C624.288 23.5562 624.216 23.5136 624.162 23.4711C624.066 23.386 624.162 23.301 624.378 23.2159C625.242 22.8817 628.002 22.6751 627.006 23.6169ZM634.332 25.385C633.636 25.5673 632.994 25.7739 632.304 25.8589C631.296 25.9805 630.222 25.9076 628.974 25.7131C630.99 25.6524 632.094 25.142 631.764 23.8296C631.41 22.4321 628.128 22.0372 626.55 22.1587C626.142 22.1891 625.296 22.2802 624.384 22.4564C623.028 22.7116 621.528 23.143 621.102 23.7992C620.532 23.7688 620.082 23.781 619.188 23.1491C621.018 22.5597 622.722 21.7698 624.39 21.2898C626.394 20.7126 628.356 20.5668 630.45 21.7394C631.656 22.4078 633.114 23.307 634.614 23.787C636.072 24.2488 637.584 24.2913 637.818 24.8382C636.18 24.6802 635.598 25.063 634.338 25.3972L634.332 25.385Z" fill="#63666B"/>
<path d="M617.308 23.4656C616.996 23.6175 616.558 23.8241 616.186 23.581C615.868 23.3684 615.79 23.1253 615.616 23.0889C615.574 23.4352 615.448 23.5749 615.322 23.6418C615.154 23.7329 614.998 23.6904 615.052 23.8362C615.118 24.0003 615.31 24.2008 615.274 24.3466C615.208 24.5896 614.968 24.7598 615.004 24.8813C615.034 24.9906 615.19 25.0149 615.322 25.0757C615.352 25.0879 615.376 25.1 615.406 25.1182C615.52 25.1911 615.592 25.3795 615.592 25.5496C615.592 25.9446 615.892 25.5739 616.108 25.501C616.45 25.3795 616.888 25.823 616.876 25.7744C616.714 25.1668 617.356 25.0392 617.692 25.1L617.668 24.5046C617.656 24.2676 618.046 24.1461 617.77 24.1218C617.032 24.061 617.32 23.4534 617.302 23.4656H617.308Z" fill="#63666B"/>
</g>
<g clip-path="url(#clip1_106_6875)">
<path d="M711.628 23.4103C710.368 23.3253 709.834 22.3531 708.94 21.7273C705.922 19.6007 703.57 19.0964 700.39 20.1232C700.072 20.2265 699.742 20.3481 699.4 20.4817C698.848 20.7005 694.12 22.341 695.542 21.5572C696.25 21.1622 697.114 20.9678 697.984 20.5789C698.926 20.1597 699.706 19.7526 700.384 19.3212C702.304 18.1182 703.396 16.7754 704.86 14.7339C705.076 14.2296 705.286 13.6645 705.496 13.0326C705.922 11.7567 706.12 10.2255 706.6 9.35059C706.828 8.93135 708.142 6.56173 707.392 6.30654C706.102 7.0235 704.542 7.91666 702.652 8.69439C701.932 8.99211 701.152 9.25945 700.384 9.56932C699.376 9.97641 698.392 10.4503 697.594 11.1551C696.964 11.7141 696.562 12.4858 696.208 13.2453C695.488 14.8007 695.032 16.18 694.354 18.1121C694.108 18.8108 693.832 19.5764 693.508 20.4513C693.592 19.0964 693.982 17.8265 694.354 16.5567C694.672 15.4691 694.984 14.3754 695.092 13.227C695.194 11.1491 695.014 9.08325 694.354 7.64932V7.63717C693.7 5.77189 694 3.94911 693.424 3.14097L692.5 1.51873L691.9 0.911133C692.302 3.78506 693.964 9.93388 694.18 12.0605C694.45 14.7582 693.16 17.4924 692.584 19.5157C692.584 16.3197 692.848 13.622 692.848 10.4443C692.848 7.92881 692.5 3.34151 691.9 0.911133C691 2.73392 690.988 6.78654 690.88 8.65185C690.79 10.2438 690.784 11.8357 690.88 13.4032C691.042 15.9551 691.474 18.4645 692.266 20.8645C691.702 20.8463 691.246 20.1597 690.88 19.1511C690.238 17.3891 689.884 14.667 689.734 12.9232C689.692 12.4068 689.662 11.9754 689.656 11.6838C689.638 11.1855 689.668 10.5354 689.734 9.78806C689.908 7.79514 691.402 3.00734 691.9 0.911133C691.6 1.21493 691 1.51873 689.734 4.65996C689.632 5.10958 689.53 5.54097 689.422 5.95413C689.254 6.60426 689.068 7.18755 688.864 7.63717C687.856 9.84882 688.93 11.7263 689.422 13.8225C689.518 14.2174 689.59 14.6245 689.62 15.0438C689.644 15.3658 689.686 15.6878 689.734 16.0038C689.962 17.5288 690.412 19.0235 690.778 20.1597C690.358 20.105 689.992 19.0478 689.734 18.0635C689.62 17.62 689.524 17.1886 689.458 16.8665C689.446 16.7997 689.434 16.7268 689.422 16.6478C689.308 15.9308 689.248 14.9101 689.008 14.26C687.94 11.3374 686.29 9.8792 683.446 8.69439C683.344 8.65185 683.236 8.60932 683.128 8.56679C682.534 8.32983 680.068 7.8316 679.24 6.83514C678.58 6.0392 677.374 4.72679 676.612 5.19464C675.652 5.79008 676.756 7.63717 677.086 8.40882C678.136 10.8939 678.154 13.944 680.296 15.7789C681.244 16.5931 682.33 17.0367 683.446 17.4984C684.412 17.8994 685.396 18.3187 686.332 19.0053C686.92 19.4367 687.682 19.9531 688.072 20.5182C688.234 20.7551 688.6 20.9374 688.654 21.6908C688.642 21.6605 686.986 19.6675 683.488 18.6589L683.452 18.6468C683.044 18.5313 682.6 18.4281 682.144 18.343C676.306 18.1364 673.756 20.3784 670.066 21.2838C668.938 21.5572 667.144 21.7091 666.994 23.0579V23.4346C667 23.5015 667.012 23.5683 667.024 23.6412C669.388 23.0336 671.92 25.1663 673.936 26.0838C675.82 26.9405 677.446 27.1835 678.94 27.1045C680.26 26.9587 681.55 26.5577 682.666 26.2417C682.93 26.1688 683.188 26.0838 683.452 25.9865C685.42 25.2574 687.334 23.9936 689.38 23.9936C687.622 24.8017 685.822 25.4944 683.776 26.5881L683.452 26.7643C681.676 27.7182 679.834 28.7693 678.748 30.5253C677.638 32.3177 677.266 33.545 676.312 35.4225C675.658 36.7106 674.608 37.7617 674.608 38.5212C674.608 39.3901 675.076 40.1496 675.952 40.3319C678.346 39.9005 679.318 38.2174 681.622 37.221C682.18 36.9779 682.81 36.6134 683.452 36.1698C684.568 35.3982 685.726 34.3713 686.686 33.2898C687.484 32.0503 688.246 30.7622 688.876 29.4863C688.99 29.2493 689.194 28.7936 689.422 28.2954C689.524 28.0706 689.632 27.8336 689.734 27.6027C690.214 26.5455 690.658 25.6038 690.478 26.3025C690.28 27.0802 690.016 27.864 689.734 28.6478C689.632 28.9212 689.53 29.2007 689.422 29.4802C689.002 30.58 688.552 31.6858 688.168 32.8159C687.43 34.9729 687.586 37.142 687.64 39.3232C687.724 39.9126 687.838 40.502 687.97 41.0853C688.234 42.8412 688.936 43.6797 689.092 45.7455C689.128 46.183 689.212 46.742 689.416 47.1977C689.5 47.38 689.602 47.5501 689.728 47.6838C689.848 47.8114 689.998 47.9146 690.166 47.9693C690.406 48.0483 690.646 48.0362 690.874 47.9693C691.6 47.7384 692.182 46.8635 692.32 46.2984C692.794 44.2934 693.67 40.186 693.856 38.9344C694.228 36.4554 694.366 35.064 694.018 32.585C693.766 30.7562 693.28 27.7668 692.908 26.0534C692.992 26.0108 693.184 26.0473 693.568 27.1592C693.784 27.785 694.072 28.6417 694.348 29.4863C694.702 30.5617 695.032 31.6068 695.194 32.1172C696.082 34.9303 697.846 37.3607 700.372 38.6974C700.996 39.0255 701.662 39.2929 702.37 39.4751C703.378 39.7425 704.59 40.1617 705.634 40.6903C705.892 40.824 708.184 42.106 708.184 41.14C707.932 40.0341 707.5 39.1045 706.888 38.3086C705.772 36.8443 705.274 34.9972 704.686 33.387C703.396 29.8569 702.544 29.4012 700.366 28.0341C699.976 27.7911 699.55 27.5177 699.07 27.1957C697.738 26.2964 695.824 25.3668 694.816 24.425C695.512 24.1638 698.878 26.0291 699.736 26.5151C699.952 26.6367 700.162 26.746 700.372 26.8554C704.38 28.8969 707.62 28.3744 711.688 26.3268C712.81 25.7617 714.652 26.2539 714.772 24.6863C714.562 23.9815 712.372 23.4954 711.61 23.4468L711.628 23.4103ZM683.794 13.3972C683.74 13.3364 683.614 13.2392 683.458 13.1238C682.744 12.5891 681.286 11.5865 681.808 11.38C682.408 11.143 682.984 11.4893 683.458 11.9268C683.734 12.182 683.98 12.4615 684.172 12.6741C684.904 13.4822 685.672 14.582 686.344 16.4777C685.54 15.1774 684.976 14.6549 683.794 13.3972ZM687.796 19.2301C688.708 17.4194 686.626 14.0534 685.45 12.5891C685.078 12.1212 684.292 11.5015 683.452 11.0944C682.048 10.4139 680.494 10.347 680.494 12.6377C678.604 10.8392 677.866 7.02958 677.296 5.99666C678.286 6.5678 678.742 7.55818 679.576 8.27514C680.242 8.85236 681.19 9.25337 682.576 9.50856C682.882 9.56325 683.176 9.64223 683.452 9.73337C686.668 10.7724 688.06 13.944 688.648 16.423C688.966 17.7719 689.116 19.0174 689.428 20.1901C689.482 20.3967 689.542 20.5972 689.608 20.7977L689.428 20.6458L687.796 19.2362V19.2301ZM678.292 23.4954C678.148 23.465 676.48 23.0519 677.488 22.7116C677.926 22.4443 679.408 22.4686 679.93 22.4686C680.506 22.4686 682.552 22.6265 683.452 22.8757C683.674 22.9364 683.824 23.0032 683.866 23.0762C683.908 23.1491 683.746 23.2159 683.452 23.2767C682.276 23.5136 678.976 23.6412 678.292 23.5015V23.4954ZM685.324 24.0969C684.76 24.2731 684.1 24.3582 683.452 24.4372C683.308 24.4554 683.17 24.4736 683.032 24.4858C683.17 24.4554 683.314 24.4189 683.452 24.3825C684.382 24.1577 685.3 23.8843 685.27 23.2827C685.234 22.5962 684.376 22.2377 683.452 22.0432C682.666 21.8792 681.844 21.8306 681.448 21.7941C679.648 21.6483 677.134 21.7941 676.054 22.4868C674.554 23.465 676.162 24.2974 677.128 24.6438C676.216 24.7167 674.998 24.0908 674.086 23.7506C672.982 23.3374 671.944 23.1673 670.78 22.9364C669.85 22.7481 668.824 22.9364 667.828 22.7238C671.98 21.4053 675.826 20.3663 680.374 20.5486C681.112 20.5789 682.234 20.8038 683.446 21.1015C685.762 21.6665 688.42 22.5111 689.422 22.8149C689.53 22.8513 689.62 22.8757 689.686 22.8939C689.608 22.9364 689.518 22.985 689.422 23.0276C688.27 23.5319 685.924 23.8964 685.324 24.0908V24.0969ZM684.172 30.1546C683.986 30.343 683.734 30.6468 683.446 30.9931C682.372 32.3055 680.86 34.2559 680.86 33.2594C680.86 32.4817 682.264 31.224 682.864 30.6103C683.05 30.422 683.242 30.2397 683.446 30.0635C684.298 29.3162 685.288 28.7086 686.254 28.4777C685.312 29.0306 684.652 29.6564 684.166 30.1546H684.172ZM689.734 24.9901C689.65 25.2149 689.542 25.4519 689.422 25.6949C688.852 26.8493 687.916 28.1982 686.77 29.5896C687.424 28.587 688.732 26.8615 688.204 26.4422C687.856 26.1627 685.462 27.305 683.878 28.6357C683.734 28.7572 683.59 28.8787 683.452 29.0063C681.904 30.4038 680.5 32.2205 679.894 33.065C678.592 34.8757 679.9 35.6595 681.514 34.5111C681.706 34.3713 682.258 34.1526 682.804 33.703C680.41 36.0362 677.092 36.7592 676.408 38.5091C676.594 36.6559 678.004 34.7116 679.054 33.0832C679.582 32.263 680.146 31.4792 680.764 30.744C681.508 29.8569 682.444 29.0245 683.464 28.265C685.366 26.8432 687.568 25.6584 689.44 24.7592L689.752 24.6134L689.902 24.5405C689.86 24.6863 689.812 24.8321 689.752 24.9901H689.734ZM692.176 33.4356C692.176 37.1602 691.54 42.586 690.88 45.6301C690.802 46.0007 690.718 46.3349 690.64 46.6326C690.184 45.7151 689.896 44.3967 689.734 42.8595C689.512 40.7389 689.542 38.1992 689.734 35.6959C689.95 32.8645 690.376 30.0817 690.88 28.0098C691.126 26.9951 691.396 26.1506 691.666 25.5551C692.212 27.8579 692.182 31.8924 692.182 33.4356H692.176ZM693.484 24.0665C692.98 24.0119 692.914 24.1334 692.848 24.6863C692.788 25.1784 693.112 25.7496 692.848 25.4215C692.674 25.2027 692.452 24.8989 692.266 24.747C691.804 24.3703 691.252 24.5101 690.88 24.9779C690.856 25.0083 690.832 25.0448 690.808 25.0751C690.412 25.6584 690.376 25.3486 690.598 24.9962C691.072 24.2367 690.61 23.7445 689.926 23.7445C689.848 23.7445 689.788 23.7445 689.74 23.7445C689.476 23.7263 689.56 23.6716 689.74 23.5744C689.932 23.4711 690.238 23.3192 690.334 23.1308C690.586 22.6205 690.118 22.341 689.74 22.1283L689.692 22.104C689.584 22.0432 689.494 21.9886 689.428 21.9521C689.164 21.7941 689.212 21.7941 689.428 21.8063C689.5 21.8063 689.59 21.8124 689.692 21.8124H689.74C690.322 21.8124 690.622 21.6969 690.886 21.2655C690.934 21.1865 690.982 21.0954 691.03 20.9921C691.234 21.0529 691.534 21.6665 692.014 21.6665C692.416 21.6665 692.908 21.381 693.118 21.1683C693.19 21.0954 693.478 20.5 693.352 20.9313C693.256 21.2655 693.148 21.6787 693.322 21.9582C693.556 22.3349 693.934 22.3045 694.366 22.2863C694.444 22.2863 694.516 22.2802 694.594 22.2802C694.624 22.2802 694.516 22.3713 694.366 22.505C694.132 22.7116 693.796 23.0093 693.754 23.1916C693.676 23.5379 694.096 23.8903 694.366 24.182C694.396 24.2184 694.426 24.2488 694.45 24.2792C694.486 24.3278 694.45 24.3339 694.366 24.3157C694.15 24.2792 693.652 24.0908 693.496 24.0726L693.484 24.0665ZM699.652 28.8422C699.904 29.0124 700.144 29.1825 700.384 29.3648C702.304 30.8412 703.798 32.8402 704.704 35.6716C705.232 37.3182 707.062 38.983 707.344 40.5324C706.162 38.9891 705.904 39.1227 704.356 37.5126C702.904 35.9997 701.44 34.3106 700.9 33.6787C700.726 33.4782 700.558 33.2777 700.384 33.0772C698.254 30.6043 696.178 28.3683 694.36 25.5977C694.198 25.3486 694.036 25.0934 693.874 24.8321C693.928 24.82 694.102 24.9111 694.36 25.0691C695.662 25.8772 699.094 28.4594 699.658 28.8422H699.652ZM694.354 20.8584C694.258 20.8402 694.18 20.7977 694.126 20.743C694.204 20.6276 694.282 20.5121 694.354 20.3967C696.598 16.9455 696.322 14.9587 699.772 11.7202C699.916 11.5865 700.126 11.4346 700.384 11.2767C702.118 10.1891 706.036 8.57894 706.642 7.66147C706.162 9.19261 704.296 11.0336 703.546 12.6741C704.098 10.42 702.082 11.5622 700.384 12.8686C699.964 13.1906 699.562 13.5248 699.22 13.8164C697.294 15.4873 696.394 17.6078 696.934 18.1911C697.402 18.7015 698.806 18.2701 700.384 17.0488C701.128 16.4716 701.908 15.7182 702.646 14.8068C702.394 15.9187 701.65 16.7329 700.384 17.7232C700.174 17.8873 699.952 18.0513 699.718 18.2276C697.708 19.7162 695.242 21.0468 694.36 20.8584H694.354ZM700.576 14.2964C700.522 14.424 700.456 14.5334 700.378 14.6306C700.252 14.7886 700.096 14.9344 699.922 15.0924C699.724 15.2746 698.686 15.943 699.064 15.1167C699.28 14.6488 699.7 14.1263 700.084 13.9562C700.18 13.9136 700.288 13.9015 700.372 13.9075C700.552 13.9258 700.666 14.0594 700.57 14.2903L700.576 14.2964ZM703.006 23.6169C702.724 23.8782 701.068 23.8721 700.378 23.5926C700.288 23.5562 700.216 23.5136 700.162 23.4711C700.066 23.386 700.162 23.301 700.378 23.2159C701.242 22.8817 704.002 22.6751 703.006 23.6169ZM710.332 25.385C709.636 25.5673 708.994 25.7739 708.304 25.8589C707.296 25.9805 706.222 25.9076 704.974 25.7131C706.99 25.6524 708.094 25.142 707.764 23.8296C707.41 22.4321 704.128 22.0372 702.55 22.1587C702.142 22.1891 701.296 22.2802 700.384 22.4564C699.028 22.7116 697.528 23.143 697.102 23.7992C696.532 23.7688 696.082 23.781 695.188 23.1491C697.018 22.5597 698.722 21.7698 700.39 21.2898C702.394 20.7126 704.356 20.5668 706.45 21.7394C707.656 22.4078 709.114 23.307 710.614 23.787C712.072 24.2488 713.584 24.2913 713.818 24.8382C712.18 24.6802 711.598 25.063 710.338 25.3972L710.332 25.385Z" fill="#63666B"/>
<path d="M693.308 23.4656C692.996 23.6175 692.558 23.8241 692.186 23.581C691.868 23.3684 691.79 23.1253 691.616 23.0889C691.574 23.4352 691.448 23.5749 691.322 23.6418C691.154 23.7329 690.998 23.6904 691.052 23.8362C691.118 24.0003 691.31 24.2008 691.274 24.3466C691.208 24.5896 690.968 24.7598 691.004 24.8813C691.034 24.9906 691.19 25.0149 691.322 25.0757C691.352 25.0879 691.376 25.1 691.406 25.1182C691.52 25.1911 691.592 25.3795 691.592 25.5496C691.592 25.9446 691.892 25.5739 692.108 25.501C692.45 25.3795 692.888 25.823 692.876 25.7744C692.714 25.1668 693.356 25.0392 693.692 25.1L693.668 24.5046C693.656 24.2676 694.046 24.1461 693.77 24.1218C693.032 24.061 693.32 23.4534 693.302 23.4656H693.308Z" fill="#63666B"/>
</g>
<g clip-path="url(#clip2_106_6875)">
<path d="M787.628 23.4103C786.368 23.3253 785.834 22.3531 784.94 21.7273C781.922 19.6007 779.57 19.0964 776.39 20.1232C776.072 20.2265 775.742 20.3481 775.4 20.4817C774.848 20.7005 770.12 22.341 771.542 21.5572C772.25 21.1622 773.114 20.9678 773.984 20.5789C774.926 20.1597 775.706 19.7526 776.384 19.3212C778.304 18.1182 779.396 16.7754 780.86 14.7339C781.076 14.2296 781.286 13.6645 781.496 13.0326C781.922 11.7567 782.12 10.2255 782.6 9.35059C782.828 8.93135 784.142 6.56173 783.392 6.30654C782.102 7.0235 780.542 7.91666 778.652 8.69439C777.932 8.99211 777.152 9.25945 776.384 9.56932C775.376 9.97641 774.392 10.4503 773.594 11.1551C772.964 11.7141 772.562 12.4858 772.208 13.2453C771.488 14.8007 771.032 16.18 770.354 18.1121C770.108 18.8108 769.832 19.5764 769.508 20.4513C769.592 19.0964 769.982 17.8265 770.354 16.5567C770.672 15.4691 770.984 14.3754 771.092 13.227C771.194 11.1491 771.014 9.08325 770.354 7.64932V7.63717C769.7 5.77189 770 3.94911 769.424 3.14097L768.5 1.51873L767.9 0.911133C768.302 3.78506 769.964 9.93388 770.18 12.0605C770.45 14.7582 769.16 17.4924 768.584 19.5157C768.584 16.3197 768.848 13.622 768.848 10.4443C768.848 7.92881 768.5 3.34151 767.9 0.911133C767 2.73392 766.988 6.78654 766.88 8.65185C766.79 10.2438 766.784 11.8357 766.88 13.4032C767.042 15.9551 767.474 18.4645 768.266 20.8645C767.702 20.8463 767.246 20.1597 766.88 19.1511C766.238 17.3891 765.884 14.667 765.734 12.9232C765.692 12.4068 765.662 11.9754 765.656 11.6838C765.638 11.1855 765.668 10.5354 765.734 9.78806C765.908 7.79514 767.402 3.00734 767.9 0.911133C767.6 1.21493 767 1.51873 765.734 4.65996C765.632 5.10958 765.53 5.54097 765.422 5.95413C765.254 6.60426 765.068 7.18755 764.864 7.63717C763.856 9.84882 764.93 11.7263 765.422 13.8225C765.518 14.2174 765.59 14.6245 765.62 15.0438C765.644 15.3658 765.686 15.6878 765.734 16.0038C765.962 17.5288 766.412 19.0235 766.778 20.1597C766.358 20.105 765.992 19.0478 765.734 18.0635C765.62 17.62 765.524 17.1886 765.458 16.8665C765.446 16.7997 765.434 16.7268 765.422 16.6478C765.308 15.9308 765.248 14.9101 765.008 14.26C763.94 11.3374 762.29 9.8792 759.446 8.69439C759.344 8.65185 759.236 8.60932 759.128 8.56679C758.534 8.32983 756.068 7.8316 755.24 6.83514C754.58 6.0392 753.374 4.72679 752.612 5.19464C751.652 5.79008 752.756 7.63717 753.086 8.40882C754.136 10.8939 754.154 13.944 756.296 15.7789C757.244 16.5931 758.33 17.0367 759.446 17.4984C760.412 17.8994 761.396 18.3187 762.332 19.0053C762.92 19.4367 763.682 19.9531 764.072 20.5182C764.234 20.7551 764.6 20.9374 764.654 21.6908C764.642 21.6605 762.986 19.6675 759.488 18.6589L759.452 18.6468C759.044 18.5313 758.6 18.4281 758.144 18.343C752.306 18.1364 749.756 20.3784 746.066 21.2838C744.938 21.5572 743.144 21.7091 742.994 23.0579V23.4346C743 23.5015 743.012 23.5683 743.024 23.6412C745.388 23.0336 747.92 25.1663 749.936 26.0838C751.82 26.9405 753.446 27.1835 754.94 27.1045C756.26 26.9587 757.55 26.5577 758.666 26.2417C758.93 26.1688 759.188 26.0838 759.452 25.9865C761.42 25.2574 763.334 23.9936 765.38 23.9936C763.622 24.8017 761.822 25.4944 759.776 26.5881L759.452 26.7643C757.676 27.7182 755.834 28.7693 754.748 30.5253C753.638 32.3177 753.266 33.545 752.312 35.4225C751.658 36.7106 750.608 37.7617 750.608 38.5212C750.608 39.3901 751.076 40.1496 751.952 40.3319C754.346 39.9005 755.318 38.2174 757.622 37.221C758.18 36.9779 758.81 36.6134 759.452 36.1698C760.568 35.3982 761.726 34.3713 762.686 33.2898C763.484 32.0503 764.246 30.7622 764.876 29.4863C764.99 29.2493 765.194 28.7936 765.422 28.2954C765.524 28.0706 765.632 27.8336 765.734 27.6027C766.214 26.5455 766.658 25.6038 766.478 26.3025C766.28 27.0802 766.016 27.864 765.734 28.6478C765.632 28.9212 765.53 29.2007 765.422 29.4802C765.002 30.58 764.552 31.6858 764.168 32.8159C763.43 34.9729 763.586 37.142 763.64 39.3232C763.724 39.9126 763.838 40.502 763.97 41.0853C764.234 42.8412 764.936 43.6797 765.092 45.7455C765.128 46.183 765.212 46.742 765.416 47.1977C765.5 47.38 765.602 47.5501 765.728 47.6838C765.848 47.8114 765.998 47.9146 766.166 47.9693C766.406 48.0483 766.646 48.0362 766.874 47.9693C767.6 47.7384 768.182 46.8635 768.32 46.2984C768.794 44.2934 769.67 40.186 769.856 38.9344C770.228 36.4554 770.366 35.064 770.018 32.585C769.766 30.7562 769.28 27.7668 768.908 26.0534C768.992 26.0108 769.184 26.0473 769.568 27.1592C769.784 27.785 770.072 28.6417 770.348 29.4863C770.702 30.5617 771.032 31.6068 771.194 32.1172C772.082 34.9303 773.846 37.3607 776.372 38.6974C776.996 39.0255 777.662 39.2929 778.37 39.4751C779.378 39.7425 780.59 40.1617 781.634 40.6903C781.892 40.824 784.184 42.106 784.184 41.14C783.932 40.0341 783.5 39.1045 782.888 38.3086C781.772 36.8443 781.274 34.9972 780.686 33.387C779.396 29.8569 778.544 29.4012 776.366 28.0341C775.976 27.7911 775.55 27.5177 775.07 27.1957C773.738 26.2964 771.824 25.3668 770.816 24.425C771.512 24.1638 774.878 26.0291 775.736 26.5151C775.952 26.6367 776.162 26.746 776.372 26.8554C780.38 28.8969 783.62 28.3744 787.688 26.3268C788.81 25.7617 790.652 26.2539 790.772 24.6863C790.562 23.9815 788.372 23.4954 787.61 23.4468L787.628 23.4103ZM759.794 13.3972C759.74 13.3364 759.614 13.2392 759.458 13.1238C758.744 12.5891 757.286 11.5865 757.808 11.38C758.408 11.143 758.984 11.4893 759.458 11.9268C759.734 12.182 759.98 12.4615 760.172 12.6741C760.904 13.4822 761.672 14.582 762.344 16.4777C761.54 15.1774 760.976 14.6549 759.794 13.3972ZM763.796 19.2301C764.708 17.4194 762.626 14.0534 761.45 12.5891C761.078 12.1212 760.292 11.5015 759.452 11.0944C758.048 10.4139 756.494 10.347 756.494 12.6377C754.604 10.8392 753.866 7.02958 753.296 5.99666C754.286 6.5678 754.742 7.55818 755.576 8.27514C756.242 8.85236 757.19 9.25337 758.576 9.50856C758.882 9.56325 759.176 9.64223 759.452 9.73337C762.668 10.7724 764.06 13.944 764.648 16.423C764.966 17.7719 765.116 19.0174 765.428 20.1901C765.482 20.3967 765.542 20.5972 765.608 20.7977L765.428 20.6458L763.796 19.2362V19.2301ZM754.292 23.4954C754.148 23.465 752.48 23.0519 753.488 22.7116C753.926 22.4443 755.408 22.4686 755.93 22.4686C756.506 22.4686 758.552 22.6265 759.452 22.8757C759.674 22.9364 759.824 23.0032 759.866 23.0762C759.908 23.1491 759.746 23.2159 759.452 23.2767C758.276 23.5136 754.976 23.6412 754.292 23.5015V23.4954ZM761.324 24.0969C760.76 24.2731 760.1 24.3582 759.452 24.4372C759.308 24.4554 759.17 24.4736 759.032 24.4858C759.17 24.4554 759.314 24.4189 759.452 24.3825C760.382 24.1577 761.3 23.8843 761.27 23.2827C761.234 22.5962 760.376 22.2377 759.452 22.0432C758.666 21.8792 757.844 21.8306 757.448 21.7941C755.648 21.6483 753.134 21.7941 752.054 22.4868C750.554 23.465 752.162 24.2974 753.128 24.6438C752.216 24.7167 750.998 24.0908 750.086 23.7506C748.982 23.3374 747.944 23.1673 746.78 22.9364C745.85 22.7481 744.824 22.9364 743.828 22.7238C747.98 21.4053 751.826 20.3663 756.374 20.5486C757.112 20.5789 758.234 20.8038 759.446 21.1015C761.762 21.6665 764.42 22.5111 765.422 22.8149C765.53 22.8513 765.62 22.8757 765.686 22.8939C765.608 22.9364 765.518 22.985 765.422 23.0276C764.27 23.5319 761.924 23.8964 761.324 24.0908V24.0969ZM760.172 30.1546C759.986 30.343 759.734 30.6468 759.446 30.9931C758.372 32.3055 756.86 34.2559 756.86 33.2594C756.86 32.4817 758.264 31.224 758.864 30.6103C759.05 30.422 759.242 30.2397 759.446 30.0635C760.298 29.3162 761.288 28.7086 762.254 28.4777C761.312 29.0306 760.652 29.6564 760.166 30.1546H760.172ZM765.734 24.9901C765.65 25.2149 765.542 25.4519 765.422 25.6949C764.852 26.8493 763.916 28.1982 762.77 29.5896C763.424 28.587 764.732 26.8615 764.204 26.4422C763.856 26.1627 761.462 27.305 759.878 28.6357C759.734 28.7572 759.59 28.8787 759.452 29.0063C757.904 30.4038 756.5 32.2205 755.894 33.065C754.592 34.8757 755.9 35.6595 757.514 34.5111C757.706 34.3713 758.258 34.1526 758.804 33.703C756.41 36.0362 753.092 36.7592 752.408 38.5091C752.594 36.6559 754.004 34.7116 755.054 33.0832C755.582 32.263 756.146 31.4792 756.764 30.744C757.508 29.8569 758.444 29.0245 759.464 28.265C761.366 26.8432 763.568 25.6584 765.44 24.7592L765.752 24.6134L765.902 24.5405C765.86 24.6863 765.812 24.8321 765.752 24.9901H765.734ZM768.176 33.4356C768.176 37.1602 767.54 42.586 766.88 45.6301C766.802 46.0007 766.718 46.3349 766.64 46.6326C766.184 45.7151 765.896 44.3967 765.734 42.8595C765.512 40.7389 765.542 38.1992 765.734 35.6959C765.95 32.8645 766.376 30.0817 766.88 28.0098C767.126 26.9951 767.396 26.1506 767.666 25.5551C768.212 27.8579 768.182 31.8924 768.182 33.4356H768.176ZM769.484 24.0665C768.98 24.0119 768.914 24.1334 768.848 24.6863C768.788 25.1784 769.112 25.7496 768.848 25.4215C768.674 25.2027 768.452 24.8989 768.266 24.747C767.804 24.3703 767.252 24.5101 766.88 24.9779C766.856 25.0083 766.832 25.0448 766.808 25.0751C766.412 25.6584 766.376 25.3486 766.598 24.9962C767.072 24.2367 766.61 23.7445 765.926 23.7445C765.848 23.7445 765.788 23.7445 765.74 23.7445C765.476 23.7263 765.56 23.6716 765.74 23.5744C765.932 23.4711 766.238 23.3192 766.334 23.1308C766.586 22.6205 766.118 22.341 765.74 22.1283L765.692 22.104C765.584 22.0432 765.494 21.9886 765.428 21.9521C765.164 21.7941 765.212 21.7941 765.428 21.8063C765.5 21.8063 765.59 21.8124 765.692 21.8124H765.74C766.322 21.8124 766.622 21.6969 766.886 21.2655C766.934 21.1865 766.982 21.0954 767.03 20.9921C767.234 21.0529 767.534 21.6665 768.014 21.6665C768.416 21.6665 768.908 21.381 769.118 21.1683C769.19 21.0954 769.478 20.5 769.352 20.9313C769.256 21.2655 769.148 21.6787 769.322 21.9582C769.556 22.3349 769.934 22.3045 770.366 22.2863C770.444 22.2863 770.516 22.2802 770.594 22.2802C770.624 22.2802 770.516 22.3713 770.366 22.505C770.132 22.7116 769.796 23.0093 769.754 23.1916C769.676 23.5379 770.096 23.8903 770.366 24.182C770.396 24.2184 770.426 24.2488 770.45 24.2792C770.486 24.3278 770.45 24.3339 770.366 24.3157C770.15 24.2792 769.652 24.0908 769.496 24.0726L769.484 24.0665ZM775.652 28.8422C775.904 29.0124 776.144 29.1825 776.384 29.3648C778.304 30.8412 779.798 32.8402 780.704 35.6716C781.232 37.3182 783.062 38.983 783.344 40.5324C782.162 38.9891 781.904 39.1227 780.356 37.5126C778.904 35.9997 777.44 34.3106 776.9 33.6787C776.726 33.4782 776.558 33.2777 776.384 33.0772C774.254 30.6043 772.178 28.3683 770.36 25.5977C770.198 25.3486 770.036 25.0934 769.874 24.8321C769.928 24.82 770.102 24.9111 770.36 25.0691C771.662 25.8772 775.094 28.4594 775.658 28.8422H775.652ZM770.354 20.8584C770.258 20.8402 770.18 20.7977 770.126 20.743C770.204 20.6276 770.282 20.5121 770.354 20.3967C772.598 16.9455 772.322 14.9587 775.772 11.7202C775.916 11.5865 776.126 11.4346 776.384 11.2767C778.118 10.1891 782.036 8.57894 782.642 7.66147C782.162 9.19261 780.296 11.0336 779.546 12.6741C780.098 10.42 778.082 11.5622 776.384 12.8686C775.964 13.1906 775.562 13.5248 775.22 13.8164C773.294 15.4873 772.394 17.6078 772.934 18.1911C773.402 18.7015 774.806 18.2701 776.384 17.0488C777.128 16.4716 777.908 15.7182 778.646 14.8068C778.394 15.9187 777.65 16.7329 776.384 17.7232C776.174 17.8873 775.952 18.0513 775.718 18.2276C773.708 19.7162 771.242 21.0468 770.36 20.8584H770.354ZM776.576 14.2964C776.522 14.424 776.456 14.5334 776.378 14.6306C776.252 14.7886 776.096 14.9344 775.922 15.0924C775.724 15.2746 774.686 15.943 775.064 15.1167C775.28 14.6488 775.7 14.1263 776.084 13.9562C776.18 13.9136 776.288 13.9015 776.372 13.9075C776.552 13.9258 776.666 14.0594 776.57 14.2903L776.576 14.2964ZM779.006 23.6169C778.724 23.8782 777.068 23.8721 776.378 23.5926C776.288 23.5562 776.216 23.5136 776.162 23.4711C776.066 23.386 776.162 23.301 776.378 23.2159C777.242 22.8817 780.002 22.6751 779.006 23.6169ZM786.332 25.385C785.636 25.5673 784.994 25.7739 784.304 25.8589C783.296 25.9805 782.222 25.9076 780.974 25.7131C782.99 25.6524 784.094 25.142 783.764 23.8296C783.41 22.4321 780.128 22.0372 778.55 22.1587C778.142 22.1891 777.296 22.2802 776.384 22.4564C775.028 22.7116 773.528 23.143 773.102 23.7992C772.532 23.7688 772.082 23.781 771.188 23.1491C773.018 22.5597 774.722 21.7698 776.39 21.2898C778.394 20.7126 780.356 20.5668 782.45 21.7394C783.656 22.4078 785.114 23.307 786.614 23.787C788.072 24.2488 789.584 24.2913 789.818 24.8382C788.18 24.6802 787.598 25.063 786.338 25.3972L786.332 25.385Z" fill="#63666B"/>
<path d="M769.308 23.4656C768.996 23.6175 768.558 23.8241 768.186 23.581C767.868 23.3684 767.79 23.1253 767.616 23.0889C767.574 23.4352 767.448 23.5749 767.322 23.6418C767.154 23.7329 766.998 23.6904 767.052 23.8362C767.118 24.0003 767.31 24.2008 767.274 24.3466C767.208 24.5896 766.968 24.7598 767.004 24.8813C767.034 24.9906 767.19 25.0149 767.322 25.0757C767.352 25.0879 767.376 25.1 767.406 25.1182C767.52 25.1911 767.592 25.3795 767.592 25.5496C767.592 25.9446 767.892 25.5739 768.108 25.501C768.45 25.3795 768.888 25.823 768.876 25.7744C768.714 25.1668 769.356 25.0392 769.692 25.1L769.668 24.5046C769.656 24.2676 770.046 24.1461 769.77 24.1218C769.032 24.061 769.32 23.4534 769.302 23.4656H769.308Z" fill="#63666B"/>
</g>
<path d="M815 24L1381 24" stroke="#BABABA" stroke-linecap="round"/>
<defs>
<clipPath id="clip0_106_6875">
<rect width="48" height="48" fill="white" transform="translate(591)"/>
</clipPath>
<clipPath id="clip1_106_6875">
<rect width="48" height="48" fill="white" transform="translate(667)"/>
</clipPath>
<clipPath id="clip2_106_6875">
<rect width="48" height="48" fill="white" transform="translate(743)"/>
</clipPath>
</defs>
</svg>
