<svg width="258" height="282" viewBox="0 0 258 282" fill="none" xmlns="http://www.w3.org/2000/svg">
<path fill-rule="evenodd" clip-rule="evenodd" d="M203.558 3.51405C199.91 4.20883 197.797 7.33143 196.729 11.4138C196.418 10.4291 195.886 9.66404 195.006 9.22075C194.301 9.09787 193.955 9.50114 193.679 10.0163C193.124 7.11475 191.886 4.30165 189.379 3.03258C187.857 3.37787 187.276 4.99649 186.798 6.30157C186.822 5.55031 186.579 5.11804 186.163 4.88741C185.8 5.24237 185.268 5.43984 185.025 5.97015C184.626 4.30328 183.033 1.12699 180.591 0.328853C177.983 0.857861 177.165 2.72917 176.79 4.16132C176.262 3.03717 175.531 2.18099 174.418 2.07192C172.783 2.92682 174.145 6.51883 174.847 9.8885C175.257 11.8813 175.176 13.8092 174.838 14.8975C173.509 12.2832 174.242 6.48288 167.708 4.81208C164.849 6.14902 164.311 10.4744 164.87 15.9046C164.141 15.5704 163.419 15.9212 162.792 17.6393C160.918 13.8526 158.36 10.5948 154.093 10.3643C152.152 11.8007 151.22 13.6596 151.225 15.7477C151.213 16.8249 151.496 17.9573 151.976 19.0994C151.114 18.7045 150.393 17.6521 149.176 17.8566C146.686 19.9641 148.808 23.824 152.239 28.7652C153.371 30.4072 154.655 32.1583 155.925 34.024C153.332 33.5573 150.947 29.6574 147.275 31.544C146.927 32.8284 147.03 34.8806 149.215 39.6519C150.114 41.6282 151.74 43.8571 154.056 46.242C155.984 48.2486 158.389 50.3532 161.204 52.5254C160.872 53.3361 160.921 54.2807 161.464 55.3717C159.034 53.4964 156.679 52.8584 154.384 53.491C153.923 55.285 154.507 57.5982 155.731 60.0039C157.738 63.8514 161.447 67.8369 165.339 70.0215C166.869 70.8832 165.509 72.6261 164.291 71.3459C160.654 67.5537 156.556 63.6305 154.14 59.2748L153.984 59.0027C151.668 54.6926 147.546 52.4831 142.387 52.3645C142.24 52.859 142.191 53.3174 142.174 53.7911C142.109 56.2079 143.673 58.0474 145.109 59.9891C140.753 58.5543 140.702 50.7902 134.026 52.1424C133.487 52.6175 133.512 53.3509 133.636 54.1298C130.428 52.3788 127.791 52.093 125.742 53.2393C123.757 61.0725 125.781 63.0432 128.095 64.3841C129.044 64.9393 130.284 64.9461 130.872 65.9377C128.508 65.4958 126.634 65.5594 125.469 66.3494L125.358 66.4184C124.693 76.6215 140.721 74.9029 144.46 76.897C140.606 78.2188 130.356 72.8401 127.98 79.2509C128.292 81.7201 130.922 84.2086 134.383 85.2332C133.865 85.8381 133.803 86.4113 134.164 86.9374C137.605 88.3542 143.486 89.5251 151.525 89.3992C150.498 89.8909 149.883 90.5317 149.634 91.3396C150.384 93.7287 152.118 94.8446 154.492 95.0903C148.223 96.8693 140.048 97.8156 139.731 101.921C138.307 102.753 137.314 103.782 137.237 105.351C139.746 108.626 143.224 110.14 147.721 109.954C146.363 110.816 145.66 111.738 146.351 112.856C153.519 115.419 157.147 110.304 166.507 107.294C163.848 110.647 159.561 112.212 161.752 116.184C169.069 118.334 176.811 112.818 182.495 107.241C184.39 105.382 186.095 102.273 188.258 99.6548C189.166 98.5472 190.223 97.4671 191.264 96.4203C193.443 94.2907 195.77 92.1886 197.582 89.8105C198.566 88.5371 200.066 89.4651 200.413 89.5839C203.913 90.7866 207.86 92.6757 211.02 94.4447C221.395 100.162 230.559 105.284 241.959 108.502C236.403 109.686 230.847 110.87 225.258 112.038C207.131 115.884 188.809 119.72 170.522 123.652C163.994 125.032 156.191 126.83 149.485 127.286C148.784 127.326 145.667 128.264 144.532 125.578C141.353 117.985 135.949 111.137 132.582 103.779C129.992 98.1405 128.424 91.8472 125.933 87.6573C118.442 75.1206 107.351 61.7761 93.3811 62.1522C87.6474 68.1875 94.531 72.9463 97.6474 80.1496C82.5044 70.483 78.4666 59.689 64.5758 60.9435C62.8206 62.5856 63.6687 64.4982 65.6687 66.6981C57.8364 64.272 50.9228 65.355 44.9942 69.9775C44.3881 72.7879 45.6907 75.1093 47.8177 77.207C46.4552 84.6439 60.4944 90.1551 70.7508 96.2188C67.2248 95.6858 64.1962 96.3434 61.8927 98.6567C61.3569 99.2132 60.8238 99.8513 60.3751 100.568C60.4608 102.131 61.2923 103.555 62.8544 104.873C56.6283 103.142 51.028 102.06 46.1444 101.426C39.8853 100.643 34.7795 100.67 30.9788 101.174C30.059 101.956 29.9473 102.987 30.5467 104.305C23.9618 104.496 18.1311 107.679 16.4313 111.913C17.6546 124.385 38.2944 119.606 44.5373 123.75C37.0119 125.556 9.45712 115.054 5.85537 133.416C7.5087 135.497 10.8551 136.51 15.3533 136.846C13.8702 138.332 11.648 137.755 9.709 138.311C4.94024 139.614 0.442291 142.165 0.324719 156.951C3.39648 159.963 8.20128 160.68 14.706 159.089C14.0985 160.415 13.7354 161.733 14.4564 162.785C25.6077 168.296 29.3521 154.612 37.7366 154.082C33.653 157.304 29.2862 160.357 29.422 166.274C38.616 168.442 46.9687 166.495 53.0601 159.941C59.3877 153.135 68.6432 147.992 77.0025 142.879C79.7355 141.204 81.3448 144.869 78.225 145.726C65.4019 149.114 51.1405 161.067 51.1619 169.86C54.9877 172.014 59.4417 172.01 64.6054 169.844C63.0794 171.511 62.6459 173.157 62.7979 174.751C50.4791 180.015 41.3189 185.563 36.4593 190.916C36.1444 191.253 35.8627 191.605 35.581 191.957C29.502 199.358 28.3353 202.954 28.3521 205.368C33.9556 210.383 40.0084 204.614 44.8021 205.006C32.2131 215.76 20.7121 223.966 25.3061 230.482C27.3943 231.439 29.2035 229.942 30.8732 229.625C26.7442 234.871 26.2765 240.793 30.5182 246.066C38.2234 247.632 44.2514 243.055 49.3237 237.238C49.6181 240.621 50.6927 241.515 52.169 241.269C48.5707 250.609 47.5507 258.523 51.9843 262.24C64.3229 262.359 65.6589 251.742 69.2591 247.737C69.3462 249.822 68.5814 253.242 66.9326 256.577C64.1543 262.202 60.0571 267.904 62.5336 270.202C64.5666 270.492 66.1907 269.311 67.6987 267.596C67.7086 270.288 68.2737 273.956 72.6547 276.124C77.3448 275.867 81.5994 270.958 83.0894 268.232C83.3547 269.316 84.0923 269.895 84.642 270.708C85.4996 270.5 86.1294 269.826 86.4594 268.493C86.7234 270.98 86.9763 274.104 89.4858 275.455C94.5074 274.387 98.0273 269.944 100.326 265.102C100.574 266.138 100.963 267.038 102.321 267.139C104.087 266.785 105.37 265.649 106.377 264.065C106.426 271.747 108.672 278.311 114.825 281.251C120.689 280.008 122.972 275.64 124.188 269.66C124.972 271.624 126.157 272.889 128.171 272.608C133.654 269.747 133.503 261.937 131.536 252.574C138.898 252.177 142.367 247.671 142.334 239.514C142.322 237.704 142.156 235.703 141.803 233.496C139.064 222.495 134.055 213.381 130.852 203.13C127.319 191.846 125.194 180.204 121.819 168.751C120.272 163.55 120.813 159.306 125.269 154.571C129.332 150.256 132.811 146.516 136.609 143.043C139.014 140.857 141.489 138.782 144.341 136.76C145.177 139.75 145.42 143.07 145.127 146.947C144.788 151.363 143.786 156.439 142.099 162.483C140.164 169.418 138.625 177.415 135.952 185.174C131.482 198.165 130.494 203.648 134.381 206.632C136.303 207.513 138.502 205.954 140.776 203.267C139.256 214.722 142.596 220.825 148.741 223.52C162.404 219.875 157.062 207.201 160.241 204.727C164.062 208.643 155.095 235.737 174.166 244.797C176.06 243.901 177.508 241.355 178.507 237.161C180.291 244.034 182.588 250.662 193.671 252.733C199.432 248.916 200.298 242.736 198.896 235.556C201.052 238.028 203.403 239.025 205.933 238.58C209.613 233.087 208.27 227.178 204.683 221.002C201.72 215.915 196.55 211.179 192.766 205.434C191.132 202.961 192.706 202.239 194.835 204.858C201.629 213.226 209.051 218.472 219.414 214.237C220.055 210.039 219.875 205.705 216.902 200.814C220.413 199.455 219.707 196.444 214.733 191.719C212.547 189.313 210.14 187.127 207.605 185.043C209.083 184.357 209.574 182.496 209.098 179.51C214.996 182.655 220.942 185.259 227.203 184.639C229.3 184.437 231.387 183.91 233.539 182.89C233.898 180.969 234.036 179.268 234.016 177.735C233.868 166.156 224.556 164.857 224.149 161.983C226.904 161.922 229.39 161.137 231.201 158.758C229.416 147.513 215.36 147.729 204.608 144.847C213.742 145.744 217.511 143.822 218.857 140.709C214.039 126.629 200.852 123.634 184.003 125.218C200.405 121.986 217.191 119.05 234.05 116.308C241.984 115.011 249.936 113.762 257.855 112.499C257.855 111.536 257.008 108.22 256.736 106.451C256.692 106.11 256.633 105.802 256.642 105.606L255.443 105.859L250.567 106.873C238.742 104.582 228.629 100.83 218.328 95.8283C224.787 98.1868 230.491 98.9558 234.859 96.4257C236.38 95.5583 237.738 94.2559 238.903 92.5034C238.628 90.6528 236.912 89.1448 231.957 88.3177C236.263 88.2858 241.242 89.3242 244.653 87.9196C246.052 87.3174 247.226 86.3313 247.952 84.6588C247.314 83.1632 246.13 82.4202 244.68 81.9963C245.364 80.5048 250.558 81.1606 252.168 74.7595C252.339 74.0359 252.489 73.1823 252.556 72.2501C249.332 69.5697 245.705 69.4318 241.925 70.0658C241.017 70.2108 240.077 70.4221 239.172 70.6487C239.46 70.0189 239.588 69.4762 239.638 69.0177C239.697 68.363 239.533 67.8465 239.13 67.5012C240.752 66.761 242.339 65.924 243.824 64.96C247.091 63.1687 247.905 61.6564 246.216 60.4412C246.452 60.1885 246.673 59.9689 246.894 59.7493C248.623 57.8144 249.205 55.7553 249.429 53.692C244.807 50.2106 240.367 51.5849 235.889 54.7061C235.65 54.8774 235.411 55.0487 235.157 55.2531C233.66 56.3317 232.937 55.7199 234.142 54.6675C234.332 54.5143 234.49 54.3458 234.68 54.1925C237.361 51.9317 240.468 50.2274 242.599 48.1157C245.344 45.3632 246.892 42.4229 245.683 39.0215C244.391 38.4291 243.044 38.6542 241.544 39.6514C243.282 36.0358 243.705 32.6606 241.179 29.8586C235.046 29.4141 232.918 32.5698 230.994 35.9797C231.062 33.6443 230.65 32.0921 229.792 31.338C221.54 32.8906 219.797 41.5967 218.456 46.7976C217.983 48.7062 217.525 50.1412 216.854 50.5555C216.256 49.7601 216.853 48.1083 217.064 46.1596C217.327 43.834 217.04 41.1355 213.395 39.024C211.4 39.3528 209.704 40.3403 208.446 42.2102C207.436 43.7128 206.709 45.8258 206.347 48.6279C205.504 46.8782 204.569 45.7679 203.434 45.9696C201.793 46.6616 201.146 48.2497 201.058 51.4178C201.014 53.0018 201.098 55.0057 201.28 57.4957C201.535 61.1416 201.382 64.8013 201.366 68.1627C201.342 68.914 201.367 69.6474 201.374 70.3323C201.454 74.6204 201.161 77.975 200.437 80.6915C200.074 82.009 199.609 83.1994 198.99 84.1993C197.306 82.1845 195.982 80.1737 194.703 78.0636C193.613 76.2407 192.569 74.3183 191.386 72.1722C189.682 69.065 189.994 66.7213 191.507 64.2064L191.786 63.7728C194.395 59.3935 196.656 54.8954 199.135 50.5368C199.751 49.4554 200.415 48.3561 201.097 47.3051C202.474 45.0885 204.068 43.0114 205.613 40.9523C207.549 38.3904 209.467 35.7802 211.112 32.804C213.777 26.726 213.007 22.8039 208.322 21.2987C210.675 16.6018 211.825 12.5167 209.334 10.2519C208.291 9.81413 207.493 10.3307 206.823 11.267C207.02 7.9484 206.425 5.30929 203.487 3.84275L203.558 3.51405ZM175.718 89.2961C173.403 89.3584 171.322 88.1238 168.89 88.0921C170.094 88.0023 171.247 87.8489 172.436 87.7923C173.607 87.6873 174.781 87.6638 175.958 87.7217C178.166 87.8915 178.096 89.1828 175.7 89.2478L175.718 89.2961ZM213.793 138.107L213.707 138.469C187.364 135.301 178.914 144.463 169.72 145.182C189.676 151.961 192.137 155.255 196.822 157.722C207.063 159.006 216.964 154.119 227.825 156.85L227.673 157.181C216.779 154.435 207.689 159.654 199.756 159.548C206.755 162.916 214.02 166.406 221.047 171.551C223.808 173.578 226.529 175.868 229.18 178.486L228.862 178.742C225.351 175.288 221.784 172.57 218.164 170.23C210.008 165.008 201.634 162.013 193.211 157.551C193.472 158.032 193.702 158.579 193.966 159.141C195.435 162.501 196.817 167.185 198.555 171.27C200.029 174.793 201.782 177.883 204.05 179.323L203.867 179.721C201.265 178.047 199.173 174.561 197.362 170.723C195.284 166.242 193.616 161.306 192.077 158.275C191.693 157.538 191.312 156.882 190.921 156.422C189.801 155.628 188.921 155.184 187.785 154.423C180.597 149.806 169.883 147.102 161.316 144.179C157.009 142.726 153.253 141.206 150.742 139.333C150.258 138.99 149.854 138.645 149.466 138.267L149.549 138.786C150.32 143.23 151.817 146.964 153.74 150.733C154.055 151.359 154.403 152 154.751 152.64C155.552 154.13 156.572 155.32 157.373 156.81C159.029 159.935 160.404 163.412 162.047 166.652C162.601 168.069 163.17 169.453 163.773 170.852C170.262 173.144 189.763 188.618 197.581 194.927C202.766 192.451 209.079 192.416 213.755 196.043L213.449 196.184C209.277 192.948 203.264 193.641 198.571 195.742C206.524 202.194 213.032 208.385 215.725 210.822L215.438 211.012C210.894 206.924 175.782 178.08 164.843 173.067C170.82 187.156 177.336 199.807 182.349 214.337L182.395 214.237C189.745 221.215 196.185 223.004 203.622 233.47L203.25 233.581C196.466 224.055 190.067 222.526 183.037 216.337L193.25 246.564L192.918 246.412C190.059 237.161 183.142 219.433 179.469 209.768C175.997 216.119 172.27 234.143 173.849 240.762L173.366 240.941C171.709 233.966 174.997 214.537 178.918 208.433C178.274 206.774 177.726 205.521 177.034 203.88C171.419 209.569 165.838 216.757 165.741 224.934L165.454 225.123C165.568 216.472 170.544 208.326 176.477 202.381C171.489 190.51 165.751 179.138 161.002 167.095C159.843 164.198 158.579 162.055 156.946 159.141C157.605 171.795 157.06 185.061 156.882 198.054C158.728 199.101 159.304 200.207 160.086 202.089L159.61 201.991C158.987 200.462 157.922 200.335 156.539 199.501C152.345 202.352 150.197 215.966 150.177 219.687L149.782 219.586C149.852 215.407 151.363 201.782 155.77 198.467L155.777 181.385C150.834 186.219 141.627 193.269 137.675 199.88L137.356 199.614C142.018 191.804 155.833 179.686 155.998 179.24C156.025 171.392 155.904 163.516 155.477 156.221C154.33 154.172 153.184 152.123 152.101 150.022C150.193 146.22 148.558 142.262 147.843 138.045C147.719 137.266 147.61 136.454 147.534 135.657C146.907 134.487 146.916 133.328 144.9 134.49C144.244 134.871 143.54 135.27 142.838 135.751C142.137 136.232 141.435 136.712 140.833 137.238C139.834 138.104 139.227 138.467 137.989 139.505C136.973 140.322 135.926 141.206 134.864 142.123C130.172 146.149 124.985 150.991 120.604 155.561C118.603 157.652 116.822 159.964 114.806 162.088C112.382 165.189 111.921 167.945 110.569 170.895C109.724 173.877 109.281 176.682 109.047 179.381C108.971 181.472 109.181 182.852 110.706 184.513C112.655 186.65 115.888 188.172 118.773 190.015C121.357 191.64 123.608 193.554 124.867 195.535L124.725 195.67C123.548 194.65 122.143 193.164 121.385 192.455C118.674 189.969 110.361 186.842 108.934 183.741C109.074 189.3 110.439 193.936 112.458 198.632L112.895 199.954C112.9 202.043 120.405 213.062 122.005 215.52C126.135 221.824 130.247 228.08 132.686 235.013C134.112 239.075 134.959 243.354 134.891 248.055L134.659 247.949C134.725 243.166 133.778 238.842 132.222 234.8C127.8 223.268 118.413 213.994 112.878 202.353C113.304 207.201 114.431 213.493 115.397 217.424C116.193 220.677 116.719 224.167 117.007 227.828C117.662 235.588 117.395 244.048 116.893 252.32C120.484 255.249 127.193 263.978 127.725 269.556L127.414 269.534C126.896 264.364 120.276 256.317 116.845 253.301L115.562 277.017L115.264 276.88C115.358 266.697 116.223 254.219 116.522 243.327C111.436 246.811 105.466 257.912 104.399 262.517L104.073 262.528C105.198 257.709 111.071 245.682 116.57 242.346C116.73 235.521 116.611 231.055 116.278 227.493C115.62 220.615 114.164 217.14 112.5 206.592C112.062 203.784 111.596 201.124 111.566 199.265C108.519 192.174 106.467 186.06 108.192 176.784C104.52 186.371 100.459 196.02 95.8237 207.973C94.7135 210.833 93.6213 213.742 92.6106 216.648C91.4176 219.951 90.2909 223.285 89.1462 226.57C88.88 230.74 89.9272 234.669 91.1208 239.066C93.2691 247.069 95.7931 256.527 91.6372 271.548L91.3334 271.248C97.3532 249.622 88.914 240.381 88.3302 228.964C82.8776 244.713 78.0272 259.937 74.9814 271.134L74.8736 270.844C78.0477 259.104 82.575 243.01 88.3258 226.435C88.3355 226.239 88.3603 226.01 88.37 225.814L88.533 225.808C89.0687 224.289 89.6197 222.737 90.1554 221.218C82.4815 230.174 59.3659 243.243 54.8164 257.722L54.521 257.667C59.8685 240.746 90.9829 223.963 91.4409 217.275L91.5071 217.305L91.8661 216.347C92.91 213.456 93.9539 210.566 95.031 207.69C98.7825 197.578 102.396 187.243 106.476 177.201C108.027 173.38 109.513 170.05 111.099 166.325C109.333 168.604 107.103 170.67 104.718 172.986C100.405 177.146 95.6198 180.849 91.7502 183.166C89.64 184.445 87.4028 185.826 84.9252 186.856C82.4407 188.164 73.191 197.321 66.0445 204.514C62.7785 207.789 59.9393 210.659 58.3443 212.214C58.744 219.657 57.3163 224.698 54.9194 231.941L54.6928 231.998C56.9559 225.134 57.8739 219.98 57.5875 212.991C50.463 219.873 41.1112 229.865 33.9829 240.956L33.7786 240.702C43.4325 225.674 54.0977 215.442 65.2822 204.164C66.9227 202.51 68.5785 200.822 70.2647 199.068C74.0941 195.088 77.6763 191.034 81.3428 188.022C71.7211 191.514 59.5387 193.591 48.8563 196.597C42.9578 198.265 37.4779 200.246 33.2119 202.903L33.0158 202.893C37.4088 200.134 42.7079 198.111 48.326 196.354C61.1628 192.41 75.6391 190.141 84.6433 185.283C89.046 183.291 92.6506 181.814 96.3959 178.718C85.8887 179.678 82.7061 174.369 72.5872 177.633L72.4339 177.442C78.6472 175.437 82.5378 176.137 86.8386 176.905C89.9571 177.451 93.2192 177.422 97.7408 177.008C104.172 172.776 113.887 160.504 119.963 154.947C124.072 150.533 129.076 146.088 134.038 141.825C135.1 140.908 136.147 140.024 137.194 139.14C138.114 138.358 140.297 136.832 142.012 135.453C142.965 134.686 143.755 133.925 144.016 133.443C144.583 132.38 146.096 131.268 142.611 130.995C138.439 130.647 134.33 130.248 130.263 130.108C128.124 130.051 125.969 130.026 123.835 130.131C120.394 130.639 117.078 131.486 113.903 132.638C103.393 136.404 94.1776 143.21 84.965 150.098C75.8642 156.916 66.7636 163.735 56.3409 167.661L56.3118 167.287C66.6046 163.381 75.2759 155.925 84.2979 149.19C93.3503 142.39 101.784 135.627 111.947 131.741C113.896 130.99 115.865 130.369 117.952 129.841C114.147 129.742 110.767 129.677 107.472 129.691C104.714 129.67 102.04 129.728 99.2037 129.792L99.1788 130.021C94.1682 129.49 70.5727 131.791 69.8256 132.371C56.6191 142.723 47.5121 157.519 34.6396 164.254L34.5954 163.913C47.356 157.247 55.4259 142.176 67.1173 132.855C53.2777 135.135 40.3994 138.819 27.3928 144.008C23.9858 146.016 23.5552 148.706 23.1785 152.504C22.9977 154.387 22.9054 157.914 20.5259 158.468L20.5479 158.157C21.5354 157.928 22.4054 156.642 22.5694 152.345C22.6893 149.633 22.8866 147.277 24.3656 145.188C18.1716 147.763 11.812 150.263 5.37775 153.451L5.18857 153.164C18.1536 146.752 29.6672 141.32 42.4073 137.413C34.0351 135.903 22.4847 130.649 16.0268 130.738L15.9826 130.397C23.4032 130.308 41.685 136.801 45.2827 136.565C51.7612 134.681 58.4138 133.118 65.4365 131.884C73.6276 130.464 80.4238 129.287 89.9187 128.786C66.3129 124.545 46.7723 112.222 22.1587 111.931L22.0813 111.575C37.0812 111.751 50.9187 116.127 64.7561 120.503C75.5426 123.922 86.3623 127.356 97.6168 128.704C99.9467 128.608 102.343 128.543 104.82 128.476C110.835 128.304 117.196 128.251 123.861 128.498C124.957 128.559 126.001 128.556 126.948 128.589C130.768 128.656 133.867 128.632 138.152 128.911C127.076 122.271 117.001 114.325 106.562 106.734L104.153 104.989C90.0963 106.167 79.8927 102.614 68.0456 101.597C67.1286 101.497 66.2294 101.446 65.282 101.413L65.3041 101.102C65.9408 101.113 66.5954 101.173 67.25 101.232C77.8969 101.98 88.653 104.503 102.002 103.642C95.8631 99.1843 90.42 95.0456 84.1896 90.7867C72.9124 83.0119 62.2651 75.5258 52.6538 71.6427L52.7449 71.4438C62.4377 75.3242 72.9178 81.2498 84.2102 88.9914C80.6377 77.007 74.4737 72.7785 67.7623 63.9678L68.0011 63.7965C74.8658 72.7978 82.2287 76.7736 87.1272 91.2907C98.7054 99.2837 108.09 106.111 119.448 114.324C115.386 99.4682 104.702 77.4467 95.8647 66.0978L96.2485 65.8726C98.9502 69.517 106.593 79.7971 112.313 92.0839C116.042 100.05 119.48 108.563 121.347 115.956C128.787 121.251 136.204 125.371 142.695 129.148C143.661 129.23 145.684 130.678 147.653 130.057C149.72 129.399 150.229 129.513 149.463 131.447C149.04 132.457 148.278 133.07 148.579 134.251C151.039 138.948 160.489 142.396 163.907 143.601L164.977 143.891C173.212 146.141 183.784 134.622 213.765 138.255L213.793 138.107ZM179.525 164.835C176.261 162.417 172.416 160.655 169.289 157.939C169.19 157.893 169.12 157.781 169.036 157.703C167.782 156.326 169.419 155.03 171.363 156.563C172.856 157.769 174.243 159.207 175.632 160.726C176.887 162.102 178.159 163.528 179.558 164.851L179.525 164.835ZM104.156 228.476C104.012 226.164 103.639 223.827 103.495 221.515C103.444 220.489 103.441 219.445 103.52 218.398C103.865 214.145 105.093 214.266 105.043 218.575C105.018 219.767 104.961 220.944 104.854 222.138C104.649 224.25 104.362 226.364 104.189 228.491L104.156 228.476ZM77.1269 210.876C77.3091 210.478 77.4914 210.08 77.6405 209.667C78.8446 206.69 79.9008 203.684 81.7223 201.11C85.0227 196.446 85.5849 199.07 83.9887 202.028C82.4227 204.92 80.1732 207.379 78.0382 209.849L77.1599 210.891L77.1269 210.876ZM96.6058 163.293C106.426 152.192 113.453 142.458 124.42 137.257C128.418 135.359 132.927 134.097 138.294 133.588C139.432 133.468 140.621 133.412 141.844 133.37C141.284 133.715 140.743 134.109 140.184 134.454C137.441 136.326 134.742 138.538 132.143 140.796C122.591 149.212 114.339 158.906 109.531 160.032C105.08 161.08 100.744 162.141 96.5728 163.278L96.6058 163.293ZM92.9656 115.222C95.0883 115.754 97.1917 115.715 99.2467 115.694C101.416 115.686 103.505 115.68 105.582 116.311C109.028 117.369 109.267 119.123 107.036 119.264C106.581 119.296 105.992 119.267 105.286 119.144C101.034 118.358 97.044 116.65 92.9324 115.207L92.9656 115.222ZM215.18 76.1777C215.95 75.809 216.724 75.5217 217.515 75.2827C218.871 74.8615 220.245 74.4885 221.566 73.9706C220.541 74.5438 219.567 75.1805 218.609 75.784C217.762 76.3185 216.931 76.8199 216.079 77.1914C214.777 77.7577 214.089 76.7205 215.18 76.1777ZM183.925 66.7478C185.736 67.6979 187.891 71.573 190.533 75.872C192.503 79.1008 194.725 82.5657 197.267 85.3345C188.894 82.8614 185.143 78.0943 181.815 71.877C180.387 69.2172 179.065 66.3254 177.524 63.2126C179.587 64.3989 181.699 65.5671 183.94 66.7147L183.925 66.7478ZM175.773 39.5502C175.953 40.0335 176.099 40.5017 176.23 41.003C176.65 42.7997 176.01 44.1103 174.899 41.195C174.597 40.4548 174.439 39.6607 174.315 38.8818C174.113 37.7466 174.023 36.5423 173.87 35.3892C174.52 36.7702 175.268 38.1153 175.806 39.5654L175.773 39.5502ZM189.99 33.4718C189.879 34.0629 189.784 34.6208 189.64 35.1967C189.066 37.5002 188.408 37.3594 188.82 35.0614C188.945 34.4371 189.119 33.795 189.327 33.168C189.713 32.0617 190.181 30.9528 190.568 29.8466C190.365 31.0771 190.21 32.2896 189.99 33.4718Z" fill="#63666B"/>
</svg>
