<svg width="29" height="29" viewBox="0 0 29 29" fill="none" xmlns="http://www.w3.org/2000/svg">
<path d="M15.8582 0.424194V2.35263C17.7656 2.35263 19.5525 2.83474 21.219 3.79896C22.8051 4.74309 24.07 6.00863 25.0137 7.59557C25.9774 9.26286 26.4593 11.0507 26.4593 12.959H28.3867C28.3867 10.6891 27.8145 8.57988 26.6701 6.63135C25.5658 4.74309 24.07 3.24654 22.1827 2.14171C20.2352 0.996699 18.127 0.424194 15.8582 0.424194ZM5.88968 3.31685C5.34758 3.31685 4.87575 3.4876 4.4742 3.82909L1.3722 6.99293L1.46255 6.93267C0.960606 7.35451 0.629324 7.8768 0.468703 8.49952C0.328159 9.12225 0.368314 9.72488 0.589169 10.3074C1.15134 11.8743 1.90426 13.4813 2.84791 15.1285C4.17303 17.3985 5.74913 19.4374 7.5762 21.2453C10.5075 24.1982 14.1516 26.5284 18.5085 28.2359H18.5386C19.1209 28.4368 19.7031 28.4769 20.2854 28.3564C20.8877 28.2359 21.4198 27.9747 21.8815 27.573L24.9233 24.5297C25.3249 24.1279 25.5256 23.6357 25.5256 23.0532C25.5256 22.4506 25.3249 21.9484 24.9233 21.5466L20.9781 17.5692C20.5765 17.1674 20.0746 16.9666 19.4722 16.9666C18.8699 16.9666 18.368 17.1674 17.9664 17.5692L16.0691 19.4976C14.5432 18.7745 13.218 17.8806 12.0937 16.8159C10.9693 15.7312 10.0759 14.4154 9.41331 12.8686L11.3408 10.9402C11.7624 10.4983 11.9732 9.97598 11.9732 9.37335C11.9732 8.75062 11.7323 8.24843 11.2504 7.86676L11.3408 7.95715L7.30515 3.82909C6.9036 3.4876 6.43177 3.31685 5.88968 3.31685ZM15.8582 4.28107V6.20951C17.083 6.20951 18.2073 6.51082 19.2313 7.11346C20.2753 7.7161 21.0985 8.5397 21.7008 9.58427C22.3032 10.6088 22.6043 11.7337 22.6043 12.959H24.5318C24.5318 11.3922 24.1403 9.93581 23.3573 8.58992C22.5742 7.28421 21.5302 6.23964 20.2251 5.45621C18.8799 4.67278 17.4243 4.28107 15.8582 4.28107ZM5.88968 5.24529C5.94991 5.24529 6.02018 5.27542 6.10049 5.33568L10.0458 9.37335C10.0658 9.4537 10.0458 9.52401 9.98552 9.58427L7.12445 12.4167L7.33527 13.0193L7.72678 13.863C8.04803 14.546 8.41946 15.2089 8.8411 15.8517C9.42335 16.7556 10.0658 17.529 10.7686 18.1718C11.7122 19.0959 12.8466 19.9396 14.1717 20.7029C14.8343 21.0846 15.3965 21.3658 15.8582 21.5466L16.4606 21.8178L19.3819 18.895C19.422 18.8548 19.4522 18.8347 19.4722 18.8347C19.4923 18.8347 19.5224 18.8548 19.5626 18.895L23.6283 22.9628C23.6685 23.003 23.6885 23.0331 23.6885 23.0532C23.6885 23.0532 23.6685 23.0733 23.6283 23.1135L20.6167 26.0965C20.1749 26.4782 19.6931 26.5786 19.1711 26.3978C15.0752 24.8109 11.662 22.6414 8.93145 19.8894C7.24492 18.202 5.76921 16.2836 4.50432 14.1342C3.60082 12.5874 2.8981 11.0909 2.39616 9.64453V9.6144C2.31585 9.43361 2.30581 9.22269 2.36604 8.98163C2.42628 8.72049 2.5367 8.51961 2.69733 8.379L5.67886 5.33568C5.73909 5.27542 5.80937 5.24529 5.88968 5.24529ZM15.8582 8.13794V10.0664C16.6614 10.0664 17.344 10.3476 17.9062 10.9101C18.4683 11.4725 18.7494 12.1555 18.7494 12.959H20.6769C20.6769 12.0953 20.456 11.2917 20.0143 10.5485C19.5927 9.80524 19.0104 9.22269 18.2676 8.80084C17.5247 8.35891 16.7216 8.13794 15.8582 8.13794Z" fill="black"/>
</svg>
